<?xml version="1.0" encoding="UTF-8"?><svg id="Layer_1" xmlns="http://www.w3.org/2000/svg" viewBox="0 0 102.22 79.56"><defs><style>.cls-1{opacity:.26;}.cls-1,.cls-2,.cls-3,.cls-4,.cls-5,.cls-6,.cls-7{fill:none;}.cls-2{opacity:.33;}.cls-8{opacity:.08;}.cls-8,.cls-9,.cls-10,.cls-11,.cls-12,.cls-13,.cls-14,.cls-15,.cls-16{fill:#fff;}.cls-3{opacity:.56;}.cls-4{opacity:.71;}.cls-17{fill:#f6a4a8;}.cls-18{fill:#e56a6a;}.cls-19{fill:#e5989f;}.cls-20{fill:#e46c6b;}.cls-21{fill:#ff9292;}.cls-22{fill:#af3e3e;}.cls-23{fill:#c65555;}.cls-24{fill:#d35e5e;}.cls-25{fill:#c64f4f;}.cls-26{fill:#2082c4;}.cls-27{fill:#142537;}.cls-5{stroke-width:.07px;}.cls-5,.cls-6{stroke:#fff;stroke-linecap:round;stroke-linejoin:round;}.cls-10{opacity:.14;}.cls-11{opacity:.21;}.cls-28{fill:#020101;opacity:.32;}.cls-12,.cls-29{opacity:.16;}.cls-30{fill:#181d5f;}.cls-30,.cls-7{opacity:.17;}.cls-31{opacity:.22;}.cls-32,.cls-14{opacity:.29;}.cls-33{opacity:.28;}.cls-34{opacity:.23;}.cls-6{opacity:.49;stroke-width:.01px;}.cls-13{opacity:.58;}.cls-15{opacity:.31;}.cls-16{opacity:.37;}</style></defs><path class="cls-20" d="m89.52,59.15l.38-.44-.38,4.02-3.05-1.74s-.82-1.01-1.72-2.93l1.61.16-1.95-.94c-.53-1.25-1.05-2.81-1.42-4.66l1.63.44-1.96-1.36s-1.03-2.01-1.03-6.31c0,0,6.2,2.5,7.29,7.29v2.34l.33-1.85s.65,1.96.65,5l-.38.98Z"/><g class="cls-3"><path class="cls-9" d="m84.34,48.86c1.8,3.93,3.48,7.95,4.43,12.18-.99-4.21-2.66-8.24-4.43-12.18h0Z"/></g><path class="cls-22" d="m91.06,59.87l-.33-.37.33,3.46,2.62-1.5s.71-.87,1.48-2.52l-1.38.14,1.68-.81c.45-1.08.9-2.42,1.22-4.01l-1.4.37,1.68-1.17s.89-1.73.89-5.42c0,0-5.33,2.15-6.26,6.26v2.01s-.28-1.59-.28-1.59c0,0-.56,1.68-.56,4.3l.33.84Z"/><g class="cls-3"><path class="cls-9" d="m95.51,51.03c-1.52,3.39-2.95,6.85-3.81,10.47.81-3.64,2.25-7.1,3.81-10.47h0Z"/></g><path class="cls-25" d="m88.8,59.35l-.46-.3,1.36,3.6,2.36-2.36s.5-1.13.84-3.13l-1.44.55,1.56-1.35c.17-1.28.26-2.85.13-4.64l-1.39.81,1.46-1.74s.45-2.11-.63-6.06c0,0-5.07,3.85-4.87,8.52l.59,2.15-.76-1.62s-.11,1.96.65,4.76l.6.8Z"/><g class="cls-3"><path class="cls-9" d="m90.98,48.6c-.64,4.06-1.16,8.18-1.02,12.3-.19-4.12.34-8.24,1.02-12.3h0Z"/></g><polygon class="cls-26" points="94.53 59.93 94.49 60.24 94.48 60.33 94.3 61.68 94.29 61.76 94.12 63.03 94.11 63.12 93.91 64.57 93.9 64.65 93.73 65.92 93.72 66 93.52 67.5 93.51 67.58 93.33 68.99 93.31 69.08 93.27 69.38 86.33 69.38 86.24 68.53 86.23 68.44 86.04 66.67 86.03 66.57 85.86 65.06 85.85 64.97 85.66 63.24 85.65 63.14 85.49 61.64 85.48 61.54 85.3 59.95 85.3 59.93 94.53 59.93"/><g class="cls-1"><polygon class="cls-9" points="94.3 61.68 94.29 61.76 93.32 61.1 91.43 62.41 89.26 60.95 86.55 62.41 86.53 62.4 85.49 61.64 85.48 61.54 86.56 62.32 89.27 60.87 89.29 60.88 91.43 62.32 93.32 61.01 93.34 61.02 94.3 61.68"/><polygon class="cls-9" points="87.42 59.93 87.57 59.93 86.26 60.64 86.24 60.63 85.3 59.95 85.3 59.93 85.41 59.93 86.26 60.55 87.42 59.93"/><polygon class="cls-9" points="92.03 59.93 92.16 59.93 91.13 60.64 90.08 59.93 90.21 59.93 91.13 60.55 92.03 59.93"/><polygon class="cls-9" points="94.49 60.24 94.48 60.33 93.9 59.93 94.03 59.93 94.49 60.24"/><polygon class="cls-9" points="94.12 63.03 94.11 63.12 93.32 62.58 91.43 63.89 89.26 62.43 86.55 63.89 86.53 63.87 85.66 63.24 85.65 63.14 86.56 63.8 89.27 62.34 89.29 62.35 91.43 63.8 93.32 62.49 93.34 62.5 94.12 63.03"/><polygon class="cls-9" points="93.91 64.57 93.9 64.65 93.25 64.2 91.35 65.51 89.19 64.05 86.48 65.51 86.46 65.5 85.86 65.06 85.85 64.97 86.48 65.42 89.2 63.97 89.21 63.98 91.35 65.42 93.25 64.11 93.27 64.12 93.91 64.57"/><polygon class="cls-9" points="93.73 65.92 93.72 66 93.25 65.68 91.35 66.99 89.19 65.53 86.48 66.99 86.46 66.97 86.04 66.67 86.03 66.57 86.48 66.9 89.2 65.44 89.21 65.45 91.35 66.9 93.25 65.59 93.27 65.6 93.73 65.92"/><polygon class="cls-9" points="93.52 67.5 93.51 67.58 93.32 67.45 91.43 68.76 89.26 67.3 86.55 68.76 86.53 68.75 86.24 68.53 86.23 68.44 86.56 68.67 89.27 67.21 89.29 67.23 91.43 68.67 93.32 67.36 93.34 67.37 93.52 67.5"/><polygon class="cls-9" points="89.51 68.7 90.51 69.38 90.38 69.38 89.49 68.78 88.36 69.38 88.21 69.38 89.49 68.69 89.51 68.7"/><polygon class="cls-9" points="93.33 68.99 93.31 69.08 92.89 69.38 92.76 69.38 93.33 68.99"/></g><rect class="cls-29" x="50.91" y="50.17" width="39.46" height="10.66"/><rect class="cls-20" x="49.77" y="48.83" width="39.46" height="10.66"/><rect class="cls-11" x="51.02" y="49.84" width="37.36" height="8.81"/><g class="cls-2"><polygon class="cls-9" points="57.29 55.2 52.57 53.22 57.38 51.2 62.19 53.22 57.29 55.2"/></g><path class="cls-16" d="m62.16,55.95c0,.08-.06.14-.14.14s-.14-.06-.14-.14c0-.05.03-.1.07-.12v-2.61h.1v2.59c.06.01.1.07.1.13Z"/><polygon class="cls-10" points="60 54.1 60 57.04 54.57 57.04 54.57 54.06 57.29 55.2 60 54.1"/><rect class="cls-12" x="64.88" y="52.02" width="19.56" height="1.52"/><rect class="cls-8" x="64.88" y="54.96" width="13.85" height="1.52"/><path class="cls-20" d="m15.4,58.15l.41-.47-.41,4.38-3.32-1.9s-.89-1.1-1.87-3.2l1.75.18-2.13-1.02c-.57-1.37-1.14-3.06-1.54-5.08l1.78.47-2.13-1.48s-1.13-2.19-1.13-6.87c0,0,6.75,2.72,7.94,7.94v2.55l.36-2.01s.71,2.13.71,5.45l-.41,1.07Z"/><g class="cls-3"><path class="cls-9" d="m9.77,46.95c1.96,4.28,3.78,8.66,4.82,13.26-1.08-4.59-2.9-8.97-4.82-13.26h0Z"/></g><path class="cls-22" d="m17.09,58.94l-.36-.41.36,3.77,2.85-1.63s.77-.94,1.61-2.75l-1.51.15,1.83-.88c.49-1.17.98-2.63,1.33-4.37l-1.53.41,1.83-1.27s.97-1.88.97-5.9c0,0-5.8,2.34-6.82,6.82v2.19s-.31-1.73-.31-1.73c0,0-.61,1.83-.61,4.68l.36.92Z"/><g class="cls-3"><path class="cls-9" d="m21.93,49.31c-1.65,3.69-3.21,7.46-4.15,11.4.89-3.96,2.46-7.73,4.15-11.4h0Z"/></g><path class="cls-25" d="m14.62,58.37l-.5-.33,1.48,3.92,2.57-2.57s.55-1.23.92-3.41l-1.57.6,1.7-1.47c.18-1.4.28-3.1.15-5.05l-1.51.88,1.59-1.89s.48-2.3-.69-6.59c0,0-5.52,4.19-5.3,9.28l.64,2.34-.83-1.76s-.12,2.14.71,5.18l.65.88Z"/><g class="cls-3"><path class="cls-9" d="m17,46.66c-.69,4.43-1.27,8.91-1.11,13.4-.2-4.49.37-8.98,1.11-13.4h0Z"/></g><rect class="cls-29" x="50.81" y="15.61" width="41.58" height="30.08"/><rect class="cls-20" x="49.49" y="14.03" width="41.58" height="30.08"/><rect class="cls-11" x="50.77" y="15.33" width="39.02" height="27.12"/><rect class="cls-24" x="28.88" y="56.14" width="11.05" height="1.93"/><path class="cls-24" d="m29.58,51.31v17.45c0,.58-.47,1.05-1.05,1.05h0c-.58,0-1.05-.47-1.05-1.05v-17.45h2.11Z"/><rect class="cls-32" x="27.48" y="51.31" width="2.11" height="1.84"/><path class="cls-24" d="m40.98,51.49v17.45c0,.58-.47,1.05-1.05,1.05h0c-.58,0-1.05-.47-1.05-1.05v-17.45h2.11Z"/><rect class="cls-32" x="38.88" y="51.49" width="2.11" height="1.67"/><rect class="cls-20" x="25.11" y="50" width="19.56" height="2.11" rx=".17" ry=".17"/><polygon class="cls-17" points="40.85 63.79 40.7 64.45 40.36 65.89 38.61 65.58 38.95 63.63 38.96 63.57 38.98 63.46 40.08 63.65 40.85 63.79"/><polygon class="cls-28" points="40.85 63.79 40.7 64.45 38.95 63.63 38.96 63.57 40.08 63.65 40.85 63.79"/><path class="cls-20" d="m38.23,65.52l-.26,1.5-.13.75,6.25,1.09s.72-1.56-.53-2.42c-.09-.06-.19-.12-.3-.18-1.66-.81-2.58-1.48-2.58-1.48,0,0-.42.96-1.15.7s-.76-.82-.76-.82c0,0-.32-.4-.54.85Z"/><path class="cls-23" d="m37.97,67.02l-.13.75,6.25,1.09s.72-1.56-.53-2.42c-.36.19-.82.59-.96,1.39l-4.63-.81Z"/><path class="cls-9" d="m40.71,66.08s.02,0,.03,0c.07,0,.12-.07.12-.14-.03-.43.44-.67.44-.67.06-.03.09-.11.06-.17-.03-.06-.11-.09-.17-.06-.03.01-.63.31-.58.91,0,.06.05.11.1.12Z"/><path class="cls-9" d="m41.29,66.44s.02,0,.03,0c.07,0,.12-.07.12-.14-.03-.43.44-.67.44-.67.06-.03.09-.11.06-.17s-.11-.09-.17-.06c-.03.01-.63.31-.58.91,0,.06.05.11.1.12Z"/><path class="cls-9" d="m41.87,66.8s.02,0,.03,0c.07,0,.12-.07.12-.14-.03-.43.44-.67.44-.67.06-.03.09-.11.06-.17-.03-.06-.11-.09-.17-.06-.03.01-.63.31-.58.91,0,.06.05.11.1.12Z"/><polygon class="cls-17" points="54.25 60.8 52.9 61.95 51.61 60.45 51.53 60.35 51.5 60.31 52.15 59.76 52.95 59.08 53.48 59.78 54.25 60.8"/><polygon class="cls-28" points="53.48 59.78 51.61 60.45 51.53 60.35 52.15 59.76 52.95 59.08 53.48 59.78"/><path class="cls-20" d="m52.61,62.2l.99,1.16.49.58,4.83-4.12s-.74-1.55-2.2-1.13c-.1.03-.21.07-.33.12-1.68.77-2.78,1.04-2.78,1.04,0,0,.47.94-.19,1.34s-1.12.06-1.12.06c0,0-.51-.01.32.95Z"/><path class="cls-23" d="m53.6,63.36l.49.58,4.83-4.12s-.74-1.55-2.2-1.13c-.08.4-.07,1.01.46,1.62l-3.57,3.05Z"/><path class="cls-9" d="m54.62,60.65s.01-.01.02-.02c.04-.06.03-.14-.03-.18-.35-.25-.23-.76-.23-.77.02-.07-.03-.14-.09-.15-.07-.02-.14.03-.15.09,0,.03-.16.68.33,1.03.05.03.11.03.16,0Z"/><path class="cls-9" d="m55.27,60.43s.01-.01.02-.02c.04-.06.03-.14-.03-.18-.35-.25-.23-.76-.23-.77.02-.07-.03-.14-.09-.15s-.14.03-.15.09c0,.03-.16.68.33,1.03.05.03.11.03.16,0Z"/><path class="cls-9" d="m55.92,60.21s.01-.01.02-.02c.04-.06.03-.14-.03-.18-.35-.25-.23-.76-.23-.77.02-.07-.03-.14-.09-.15-.07-.02-.14.03-.15.09,0,.03-.16.68.33,1.03.05.03.11.03.16,0Z"/><path class="cls-26" d="m46.89,47.82c-.07.34-.16.71-.26,1.1-.05.21-.11.42-.17.63-.28,1.04-.63,2.19-1.02,3.38-.13.4-.26.81-.4,1.21-.03.09-.06.19-.1.28-1.62,4.77-3.55,9.61-3.55,9.61l-2.79-.51,1.86-12.9.04-.3.11-.76.15-1.02-.04-.02-8.79-5.33-2.23-1.35-.24-.15s.09-.02.26-.06c.18-.04.44-.09.76-.15,1.97-.36,6.29-.95,8.5.2.25.13,6.86,1.9,8,3.68.22.34.15,1.23-.1,2.44Z"/><path class="cls-33" d="m46.89,47.95c-.07.34-.16.71-.26,1.1-.05.21-.11.42-.17.63-.28,1.04-.63,2.19-1.02,3.38l-2.83-3.57s-.78.1-2,.21c-1.89.17-4.82.38-7.53.3-3.76-.11-3.54-6.17-3.38-8.03,0-.07.01-.14.02-.2.02-.21.04-.33.04-.33l.72.19,2.58.67s11.96,2.13,12.22,2.89c.07.2.71,1.29,1.6,2.77Z"/><path class="cls-33" d="m46.63,48.92c-.05.21-.11.42-.17.63-.37,1.38-.88,2.98-1.42,4.59l-3.14-3.96s-.53.07-1.39.15c-.01,0-.03,0-.04,0l.26-1.81.06-.39-9.32-5.65.35.09s12.62,2.24,12.89,3.05c.08.23.85,1.54,1.91,3.29Z"/><path class="cls-26" d="m29.57,41.63s-1.11,8.44,3.33,8.57c4.44.13,9.52-.51,9.52-.51l8.76,11.05,2.29-1.65s-8.13-12.95-8.38-13.71-12.22-2.89-12.22-2.89l-3.3-.85Z"/><path class="cls-20" d="m38.87,29.76s1.52,3.05,2.29,6.47l.76,3.43-2.32.19s-1.49-7.81-.73-10.09Z"/><path class="cls-31" d="m39.07,41.01c0,.92-1.71,1.46-4.26,1.47h-.02s-.08,0-.12,0c2.49-.03,5.46-.71,5.46-1.6,0-1.65-.73-9.44-1.26-11.12-.11-.34.2,9.6.2,11.25Z"/><path class="cls-20" d="m33.28,28.87h2.67s2.67.63,2.92.89.76,9.78.76,11.43-8.38,1.52-9.78.76c-1.13-.62-.4-5.98-.13-8.76.06-.65,0-3.05,0-3.05l3.55-1.27Z"/><path class="cls-20" d="m39.63,41.18c0,.92-2.6,1.29-5.15,1.3h-.02c-2.01,0-3.99-.2-4.6-.54-1.13-.62-.4-5.98-.13-8.76.06-.65,0-3.05,0-3.05l3.55-1.27h2.67s2.67.63,2.92.89c.25.25.76,9.78.76,11.43Z"/><path class="cls-31" d="m29.7,30.12s.13,3.51.07,4.16c-.28,2.78-.71,7.05.42,7.67.58.32,2.38.52,4.27.54-2.01,0-3.99-.2-4.6-.54-1.13-.62-.4-5.98-.13-8.76.06-.65,0-3.05,0-3.05"/><path class="cls-20" d="m29.73,30.14s-1.14.51-2.16,2.79-2.52,6.36-2.41,6.98c.25,1.52,5.46,4.95,5.46,4.95l1.27-1.65-3.55-4.06s.91-.97.97-1.38c.46-3.04.53-5.94.43-7.64Z"/><path class="cls-17" d="m31.72,43.42s1.3.05,1.43.3.19.42.16.72-.03.8-.03.8c0,0-1.2,1.14-2.57-.51l1.01-1.32Z"/><path class="cls-6" d="m35.31,30.65s1.74,4.2.24,11.81"/><path class="cls-21" d="m43.44,38.19l-.23,6.55-.02.57h-9.9l.02-.57.23-6.55c0-.52.45-.94.99-.94h7.91c.27,0,.52.11.7.28.18.17.29.41.29.67Z"/><polygon class="cls-18" points="43.2 44.74 43.18 45.31 33.28 45.31 33.3 44.74 43.2 44.74"/><polygon class="cls-19" points="33.27 28.87 35.24 30.52 35.97 28.87 35.85 28.29 35.35 26.49 34.83 26.45 33.83 26.36 33.27 28.87"/><path class="cls-34" d="m33.92,27.51c.57.64,1.43.77,1.92.78l-.49-1.8-.53-.04c-.72.23-1.33.59-.9,1.06Z"/><path class="cls-17" d="m32.47,25.41s.21,1.96,1.91,2.22,2.34-.77,2.42-1.62,0-2.29,0-2.29l-4.59-.68.25,2.38Z"/><path class="cls-27" d="m32.98,24.73l.08-1.36s2.63,1.27,4.16.25,1.1-4.67-.68-4.84-2.8,2.04-2.8,2.04l.08-.85s-.59,1.36-1.44,1.78-1.02,1.02-1.1,1.87.85,1.78.85,1.78l.85-.68Z"/><circle class="cls-17" cx="32.21" cy="25.07" r=".85"/><polygon class="cls-9" points="33.28 28.87 35.31 30.39 35.95 28.87 36.61 29.04 36.96 31.03 35.31 30.65 34.04 31.92 32.87 29.02 33.28 28.87"/><circle class="cls-27" cx="36.17" cy="24.91" r=".18"/><circle class="cls-27" cx="34.78" cy="24.91" r=".18"/><path class="cls-27" d="m35.16,26.21h.82s-.35.82-.82,0Z"/><g class="cls-2"><polygon class="cls-9" points="60.79 25.21 52.58 21.77 60.95 18.25 69.33 21.77 60.79 25.21"/></g><path class="cls-16" d="m69.28,26.51c0,.13-.11.24-.24.24s-.24-.11-.24-.24c0-.09.05-.17.12-.21v-4.53h.18v4.51c.1.03.18.12.18.23Z"/><polygon class="cls-10" points="65.52 23.3 65.52 28.41 56.07 28.41 56.07 23.23 60.79 25.21 65.52 23.3"/><rect class="cls-12" x="53.61" y="30.61" width="33.33" height="2.03"/><rect class="cls-12" x="71.33" y="22.28" width="15.61" height="2.03"/><rect class="cls-12" x="71.33" y="19.03" width="15.61" height="2.03"/><rect class="cls-12" x="71.33" y="25.79" width="11.05" height="2.03"/><rect class="cls-12" x="53.61" y="33.93" width="27.8" height="2.03"/><rect class="cls-12" x="53.61" y="37.44" width="32.54" height="2.03"/><circle class="cls-30" cx="90.28" cy="42.37" r="4.74"/><rect class="cls-20" x="8.44" y="16.05" width="14.82" height="20.79"/><rect class="cls-14" x="9.5" y="17.06" width="12.71" height="18.77"/><rect class="cls-20" x="8.44" y="26.01" width="14.82" height=".79"/><rect class="cls-20" x="5.46" y="25.96" width="20.79" height=".96" transform="translate(42.3 10.59) rotate(90)"/><polygon class="cls-26" points="20.86 59 20.82 59.34 20.8 59.43 20.61 60.91 20.6 61 20.41 62.38 20.4 62.47 20.19 64.05 20.18 64.14 20 65.52 19.98 65.61 19.77 67.24 19.76 67.33 19.55 68.86 19.54 68.97 19.49 69.29 11.94 69.29 11.84 68.37 11.83 68.26 11.62 66.34 11.6 66.23 11.42 64.59 11.41 64.48 11.21 62.61 11.2 62.5 11.02 60.86 11 60.75 10.81 59.02 10.81 59 20.86 59"/><g class="cls-1"><polygon class="cls-9" points="20.61 60.91 20.6 61 19.55 60.28 17.49 61.71 15.13 60.11 12.18 61.7 12.16 61.69 11.02 60.86 11 60.75 12.18 61.61 15.13 60.02 15.15 60.03 17.49 61.61 19.55 60.18 19.57 60.19 20.61 60.91"/><polygon class="cls-9" points="13.12 59 13.29 59 11.85 59.77 11.83 59.76 10.81 59.02 10.81 59 10.93 59 11.86 59.68 13.12 59"/><polygon class="cls-9" points="18.14 59 18.28 59 17.16 59.78 16.02 59 16.16 59 17.16 59.68 18.14 59"/><polygon class="cls-9" points="20.82 59.34 20.8 59.43 20.18 59 20.32 59 20.82 59.34"/><polygon class="cls-9" points="20.41 62.38 20.4 62.47 19.55 61.88 17.49 63.31 15.13 61.72 12.18 63.31 12.16 63.3 11.21 62.61 11.2 62.5 12.18 63.22 15.13 61.63 15.15 61.64 17.49 63.21 19.55 61.78 19.57 61.8 20.41 62.38"/><polygon class="cls-9" points="20.19 64.05 20.18 64.14 19.47 63.65 17.4 65.08 15.05 63.49 12.1 65.08 12.08 65.06 11.42 64.59 11.41 64.48 12.1 64.98 15.05 63.4 15.07 63.41 17.4 64.98 19.47 63.55 19.49 63.57 20.19 64.05"/><polygon class="cls-9" points="20 65.52 19.98 65.61 19.47 65.26 17.4 66.69 15.05 65.1 12.1 66.69 12.08 66.67 11.62 66.34 11.6 66.23 12.1 66.59 15.05 65 15.07 65.02 17.4 66.59 19.47 65.16 19.49 65.18 20 65.52"/><polygon class="cls-9" points="19.77 67.24 19.76 67.33 19.55 67.19 17.49 68.62 15.13 67.03 12.18 68.62 12.16 68.6 11.84 68.37 11.83 68.26 12.18 68.52 15.13 66.93 15.15 66.95 17.49 68.52 19.55 67.09 19.57 67.11 19.77 67.24"/><polygon class="cls-9" points="15.4 68.56 16.49 69.29 16.35 69.29 15.37 68.63 14.15 69.29 13.98 69.29 15.38 68.54 15.4 68.56"/><polygon class="cls-9" points="19.55 68.86 19.54 68.97 19.07 69.29 18.93 69.29 19.55 68.86"/></g><circle class="cls-26" cx="89.75" cy="41.93" r="4.82"/><g class="cls-4"><polygon class="cls-9" points="89.76 42.08 86.96 40.91 89.82 39.71 92.67 40.91 89.76 42.08"/></g><path class="cls-13" d="m92.65,42.52s-.04.08-.08.08-.08-.04-.08-.08c0-.03.02-.06.04-.07v-1.54h.06v1.54s.06.04.06.08Z"/><polygon class="cls-15" points="91.37 41.43 91.37 43.17 88.15 43.17 88.15 41.41 89.76 42.08 91.37 41.43"/><circle class="cls-30" cx="42.41" cy="13.44" r="3.49"/><circle class="cls-20" cx="42.02" cy="13.12" r="3.55"/><g class="cls-7"><circle class="cls-26" cx="29.07" cy="13.61" r="3.49"/></g><circle class="cls-26" cx="28.69" cy="13.29" r="3.55"/><polyline class="cls-5" points="27.3 13.07 28 14.03 30.02 12.54"/><line class="cls-5" x1="40.72" y1="12.25" x2="43" y2="14.15"/><line class="cls-5" x1="43" y1="12.25" x2="40.72" y2="14.15"/></svg>