<?xml version="1.0" encoding="UTF-8"?><svg id="Layer_1" xmlns="http://www.w3.org/2000/svg" xmlns:xlink="http://www.w3.org/1999/xlink" viewBox="0 0 102.22 79.56"><defs><style>.cls-1{stroke-width:.19px;}.cls-1,.cls-2{stroke:#e63f38;}.cls-1,.cls-2,.cls-3{fill:none;stroke-linecap:round;stroke-linejoin:round;}.cls-4{fill:url(#linear-gradient);opacity:.87;}.cls-4,.cls-5{isolation:isolate;}.cls-6{fill:#e94a47;}.cls-7,.cls-5{fill:#fff;}.cls-8{fill:#e53f38;}.cls-9{fill:#fbb03b;}.cls-10{fill:#ee706e;}.cls-11{fill:#b1cdfd;}.cls-12{fill:#c4d9fd;}.cls-13{fill:#d6d7d8;}.cls-14{fill:#d9e021;}.cls-15{fill:#d62929;}.cls-16{fill:#1d72d8;}.cls-17{fill:#2082c4;}.cls-18{fill:#23286b;}.cls-19{fill:#428dfc;}.cls-20{fill:#1766a1;}.cls-21{fill:#a1c3fc;}.cls-22{fill:#a2c4fc;}.cls-2{stroke-width:.14px;}.cls-5{opacity:.86;}.cls-3{stroke:#000;stroke-width:.24px;}.cls-23{fill:url(#linear-gradient-3);}.cls-24{fill:url(#linear-gradient-4);}.cls-25{fill:url(#linear-gradient-2);}.cls-26{fill:url(#linear-gradient-6);}.cls-27{fill:url(#linear-gradient-7);}.cls-28{fill:url(#linear-gradient-5);}</style><linearGradient id="linear-gradient" x1="-139.4" y1="-38.89" x2="-135.63" y2="-38.89" gradientTransform="translate(888.01 275.19) scale(6.07)" gradientUnits="userSpaceOnUse"><stop offset="0" stop-color="#a1c3fc"/><stop offset="1" stop-color="#78a9ef"/></linearGradient><linearGradient id="linear-gradient-2" x1="-4989.31" y1="809.23" x2="-4845.14" y2="809.23" gradientTransform="translate(692.06 160.52) scale(.13 -.12)" gradientUnits="userSpaceOnUse"><stop offset="0" stop-color="#e94a47"/><stop offset="1" stop-color="#d62929"/></linearGradient><linearGradient id="linear-gradient-3" x1="-4959.32" y1="937.62" x2="-4792.83" y2="893.45" gradientTransform="translate(692.06 160.52) scale(.13 -.12)" gradientUnits="userSpaceOnUse"><stop offset="0" stop-color="#89b3f4"/><stop offset="1" stop-color="#428dfc"/></linearGradient><linearGradient id="linear-gradient-4" x1="-4936.66" y1="1008.49" x2="-4883.6" y2="1008.49" gradientTransform="translate(692.06 160.52) scale(.13 -.12)" gradientUnits="userSpaceOnUse"><stop offset="0" stop-color="#23286b"/><stop offset="1" stop-color="#151a4f"/></linearGradient><linearGradient id="linear-gradient-5" x1="-4916.77" y1="937.49" x2="-4831.01" y2="1096.07" xlink:href="#linear-gradient-3"/><linearGradient id="linear-gradient-6" x1="-5511.64" y1="3382.61" x2="-5688.12" y2="3374.46" gradientTransform="translate(619.05 396.4) scale(.1 -.1)" gradientUnits="userSpaceOnUse"><stop offset="0" stop-color="#eee"/><stop offset="1" stop-color="#d6d7d8"/></linearGradient><linearGradient id="linear-gradient-7" x1="15.83" y1="34.1" x2="47.38" y2="34.1" gradientUnits="userSpaceOnUse"><stop offset="0" stop-color="#10294b"/><stop offset="1" stop-color="#101f37"/></linearGradient></defs><circle class="cls-14" cx="30.18" cy="26.12" r=".56"/><path id="texture-2_5_-i0" class="cls-9" d="m34.93,21.94s-.02.07-.05.08c-.04,0-.07-.02-.08-.05,0-.04.02-.07.05-.08h0s.07.02.08.05h0Zm-1.46,6.64s.04.06.02.09h0s-.06.04-.09.02c0,0,0,0,0,0-.03-.02-.04-.06-.02-.09.02-.03.06-.04.09-.02h0Zm.52-3.41s.06.05.05.08c0,.04-.04.06-.08.05-.04,0-.06-.05-.05-.08.01-.04.05-.06.08-.05Zm8.75-1.12c.07.01.12.08.11.15,0,.07-.07.12-.13.11,0,0,0,0,0,0-.07-.01-.12-.08-.11-.15,0-.07.07-.12.14-.11h0Zm-3.03-.44c.07.01.12.08.1.15-.01.07-.07.12-.14.11-.07,0-.12-.07-.11-.14h0c.01-.07.08-.12.15-.11Zm-3.04-.44c.07,0,.12.07.11.14,0,0,0,0,0,0,0,.07-.07.12-.13.11,0,0,0,0,0,0-.07-.01-.12-.08-.11-.15.01-.07.08-.12.15-.11Zm4.38-5.47c.01.07-.03.14-.1.15-.07.02-.13-.03-.15-.1-.01-.07.03-.13.09-.15.07-.01.14.03.15.1h0Zm-2.97.76c.01.07-.03.14-.1.15-.07.02-.13-.03-.15-.1-.01-.07.03-.13.09-.15.07-.02.14.03.15.1h0Zm1.33,10.83c.06.04.08.12.04.18-.03.06-.11.08-.17.04,0,0,0,0,0,0-.06-.03-.08-.1-.05-.16,0,0,0,0,0,0,.04-.06.11-.08.18-.05Zm-2.64-1.57c.06.04.08.11.05.18-.04.06-.12.08-.17.04-.06-.04-.08-.11-.04-.17,0,0,0,0,0,0,.03-.06.11-.08.17-.04,0,0,0,0,0,0Zm-2.63-1.57c.06.03.08.11.05.17,0,0,0,0,0,0-.03.06-.11.08-.17.05,0,0,0,0,0,0-.06-.04-.08-.12-.04-.18.04-.06.11-.08.17-.04,0,0,0,0,0,0Zm6.09-11.35c.02.06,0,.12-.07.15-.06.02-.12,0-.14-.07-.02-.06,0-.12.07-.15h0c.06-.02.12,0,.14.07Zm-.62,11.48c.06.03.08.1.05.16-.03.06-.09.08-.14.05,0,0,0,0,0,0-.06-.03-.08-.09-.06-.15,0,0,0,0,0,0,.03-.05.09-.08.15-.06h0Zm-2.47-1.17c.06.03.08.09.05.15-.03.06-.09.08-.14.05,0,0,0,0,0,0-.06-.03-.08-.09-.06-.15,0,0,0,0,0,0,.03-.05.1-.08.15-.05h0Zm-2.48-1.17c.06.03.08.09.06.15,0,0,0,0,0,0-.02.05-.09.08-.14.06,0,0,0,0,0,0-.06-.03-.08-.09-.06-.15,0,0,0,0,0,0,.03-.05.09-.08.15-.05h0Zm4.98-3.68c.06,0,.11.06.11.12,0,.06-.05.11-.12.11-.06,0-.11-.06-.11-.12,0-.06.06-.11.12-.11h0Zm-2.74-.13c.06,0,.11.05.11.11,0,0,0,0,0,0,0,.06-.05.11-.12.11-.06,0-.11-.06-.11-.12,0-.06.06-.11.12-.11h0Zm-1.58,9.71s.04.11,0,.15c0,0,0,0,0,0-.04.04-.12.04-.16,0,0,0,0,0,0,0-.04-.05-.04-.12.01-.16.04-.04.12-.04.16,0,0,0,0,0,0,0h0Zm-1.84-2.03s.04.12,0,.16c-.05.04-.12.04-.16-.01-.04-.05-.04-.11,0-.16.04-.04.11-.04.16,0,0,0,0,0,0,0h0Zm9.59-12.44c.07,0,.13.07.12.14,0,.07-.07.13-.14.12-.07,0-.13-.07-.12-.14,0-.07.07-.13.14-.12h0Zm-3.16-.18c.07,0,.13.07.12.14s-.07.13-.14.12c-.07,0-.13-.07-.12-.14,0-.07.07-.13.14-.12h0Zm-2.55,12.24c.05.06.04.14-.01.19-.06.05-.14.04-.19-.02-.04-.05-.04-.13.01-.18.05-.05.14-.04.18,0h0Zm-2.1-2.37c.05.05.04.14,0,.19-.05.05-.14.04-.18,0s-.04-.14,0-.19c.05-.05.14-.04.18,0h0Zm4.91-3.94c.06.03.09.11.06.18-.03.06-.11.09-.18.06-.06-.03-.09-.11-.06-.17,0,0,0,0,0,0,.03-.07.11-.09.18-.06,0,0,0,0,0,0h0Zm-2.85-1.38c.07.03.09.11.06.18h0c-.03.06-.11.09-.17.06h0c-.06-.03-.09-.11-.06-.17.03-.06.11-.09.17-.06h0Zm4.25-.28c.06.03.09.11.06.17-.03.07-.11.09-.17.06-.06-.03-.09-.1-.06-.17.03-.07.11-.1.17-.07h0Zm-2.89-1.26c.07.03.1.11.07.17-.03.06-.1.09-.17.07-.07-.03-.1-.11-.07-.18.03-.07.11-.09.17-.07h0Zm-2.04,5.63c.05.05.05.14,0,.19-.05.05-.13.05-.18,0-.05-.05-.05-.13,0-.18,0,0,0,0,0,0,.05-.05.13-.05.18,0,0,0,0,0,0,0h0Z"/><path class="cls-9" d="m39.1,23.63s.02,0,.03,0c.02-.01.03-.04.01-.06-.02-.02-1.54-2.28-3.39-2.77-.02,0-.05,0-.06.03,0,.02,0,.05.03.06,1.81.48,3.32,2.71,3.33,2.73,0,.01.02.02.04.02Z"/><path class="cls-9" d="m37.85,25.01s.03,0,.04-.02c.02-.02.01-.05,0-.07-.03-.03-3.2-2.67-6.93-2.92-.03,0-.05.02-.05.04,0,.03.02.05.04.05,3.7.25,6.85,2.87,6.88,2.9,0,0,.02.01.03.01Z"/><path class="cls-9" d="m47.8,25.01s.04-.01.04-.04c.22-.89,1.35-1.63,1.36-1.64.02-.01.03-.04.01-.06-.01-.02-.04-.03-.06-.01-.05.03-1.17.77-1.4,1.69,0,.02,0,.05.03.06,0,0,0,0,.01,0Z"/><polygon class="cls-18" points="33.85 20.12 34.8 20.73 35.41 19.77 34.46 19.16 33.85 20.12"/><polygon class="cls-18" points="49.98 23.71 51.05 23.37 50.71 22.29 49.63 22.63 49.98 23.71"/><polygon class="cls-6" points="28.18 22.16 29.45 22.97 30.26 21.7 28.99 20.88 28.18 22.16"/><path id="texture-2_6_-i1" class="cls-19" d="m71.86,26.99s-.07-.07-.12-.05-.07.07-.05.12c.02.05.07.07.12.05h0s.07-.07.05-.12h0Zm-6.44-6.43s0-.1-.05-.12h0s-.09,0-.11.04c0,0,0,0,0,.01-.02.04,0,.1.04.12.05.02.1,0,.12-.05h0Zm3.05,3.47s.03-.09,0-.13c-.04-.04-.09-.04-.13,0-.04.04-.04.09,0,.13.04.03.09.03.13,0Zm10.68-5.1c.07-.06.08-.17.01-.24-.06-.07-.16-.08-.23-.03,0,0,0,0,0,0-.07.06-.08.17-.01.24.06.07.17.08.24.02h0Zm-3.1,2.7c.07-.06.07-.17.01-.24-.06-.07-.17-.08-.24-.01-.07.06-.08.17-.02.24h0c.07.07.17.08.25.02Zm-3.11,2.71c.07-.06.08-.17.02-.24,0,0,0,0,0,0-.06-.07-.16-.08-.23-.03,0,0,0,0,0,0-.07.06-.08.17-.02.25.06.07.17.08.24.01Zm8.89,2.99c-.03-.09-.13-.13-.22-.1-.09.03-.13.13-.1.22.03.09.13.13.21.1.09-.03.13-.13.1-.22h0Zm-3.9,1.31c-.03-.09-.13-.13-.22-.1-.09.03-.13.13-.1.22.03.09.13.13.21.1.09-.03.13-.13.1-.22h0Zm-6.32-13.18c.04-.09,0-.19-.08-.23-.08-.04-.18,0-.22.07h0c-.05.08-.02.18.06.23,0,0,0,0,.01,0,.09.04.19,0,.23-.08Zm-1.84,3.69c.04-.09,0-.19-.08-.23-.08-.04-.19,0-.23.08-.04.08,0,.19.08.23,0,0,0,0,0,0,.08.04.18,0,.22-.07,0,0,0,0,0,0Zm-1.84,3.69c.04-.08.01-.18-.07-.22,0,0,0,0,0,0-.08-.04-.18-.01-.23.07,0,0,0,0,0,0-.04.09,0,.19.08.23.08.04.19,0,.23-.08,0,0,0,0,0,0Zm15.07,8.37c-.02-.08-.1-.13-.18-.11-.08.02-.13.1-.11.18.02.08.1.13.18.11h0c.08-.02.13-.1.11-.18Zm-8.99-12.5c.04-.07.02-.17-.05-.22-.07-.04-.16-.02-.2.05,0,0,0,0,0,0-.05.07-.03.16.04.21,0,0,0,0,0,0,.07.04.16.02.21-.05h0Zm-1.95,3.11c.04-.07.02-.16-.05-.21-.07-.04-.16-.02-.2.05,0,0,0,0,0,0-.05.07-.03.16.04.21,0,0,0,0,0,0,.07.04.17.02.21-.06h0Zm-1.95,3.13c.05-.07.03-.16-.04-.21,0,0,0,0,0,0-.07-.04-.15-.03-.2.04,0,0,0,0,0,.01-.05.07-.03.16.04.21,0,0,0,0,0,0,.07.04.16.02.21-.05h0Zm8.27.53c.07-.05.08-.15.03-.21-.05-.07-.14-.08-.21-.04-.07.05-.09.14-.04.21.05.07.15.08.22.04h0Zm-2.99,2.14c.07-.04.09-.13.04-.2,0,0,0,0,0,0-.05-.07-.14-.08-.21-.04-.07.05-.09.14-.04.21.05.07.14.08.21.03h0Zm-8.79-9.8c.01-.08-.04-.15-.11-.17,0,0,0,0,0,0-.08-.02-.16.04-.18.12,0,0,0,0,0,0-.01.08.05.16.13.17.08.01.16-.04.17-.12,0,0,0,0,0,0h0Zm-.61,3.63c.01-.08-.04-.16-.12-.18-.08-.01-.16.05-.17.13-.01.08.04.16.12.17.08.02.16-.04.18-.12,0,0,0,0,0,0h0Zm19.81,7.05c.08-.06.09-.17.04-.25-.06-.08-.17-.1-.24-.04-.08.06-.09.17-.04.25.06.08.17.1.24.04h0Zm-3.43,2.5c.08-.06.1-.17.04-.24-.06-.08-.17-.1-.24-.04-.08.06-.1.17-.04.24.06.08.17.1.24.04h0Zm-11.72-11.95c.01-.1-.05-.19-.15-.21-.1-.01-.19.06-.2.16-.01.09.05.18.15.2.09.01.18-.05.2-.15h0Zm-.66,4.2c.01-.1-.05-.18-.14-.2-.1-.02-.19.05-.2.15-.02.1.05.19.14.2.1.01.18-.05.2-.15h0Zm8.38.87c.05-.08.02-.19-.06-.24-.08-.05-.19-.02-.24.06-.05.08-.03.19.05.24,0,0,0,0,0,0,.08.05.19.02.24-.06,0,0,0,0,0,0h0Zm-2.21,3.63c.05-.08.02-.19-.06-.24h0c-.08-.05-.19-.02-.23.06h0c-.05.08-.03.19.06.24.08.05.19.03.24-.05h0Zm4.99-2.77c.05-.08.03-.19-.05-.24-.08-.05-.19-.03-.24.05-.05.08-.03.18.05.24.08.05.19.03.25-.05h0Zm-2.35,3.52c.05-.08.03-.19-.05-.25-.08-.05-.19-.03-.24.05-.05.08-.03.19.05.25.08.05.19.03.25-.05h0Zm-6.37-4.87c.02-.1-.05-.19-.14-.21-.09-.02-.18.04-.2.14-.02.09.03.18.13.21,0,0,0,0,0,0,.09.02.19-.04.21-.13,0,0,0,0,0,0h0Z"/><polygon class="cls-19" points="82.55 16.75 83.82 15.93 84.64 17.21 83.37 18.02 82.55 16.75"/><polygon class="cls-21" points="54.63 18.97 56.07 19.43 55.61 20.88 54.17 20.41 54.63 18.97"/><polygon class="cls-6" points="62.04 22.67 63.75 21.57 64.84 23.29 63.14 24.38 62.04 22.67"/><path class="cls-19" d="m58.43,28.96s-.04,0-.05-.03c-1.7-2.55-4.65-4.19-7.71-4.29-.03,0-.06-.03-.06-.06s.03-.06.06-.06c3.09.1,6.08,1.77,7.81,4.35.02.03.01.07-.02.09-.01,0-.02.01-.03.01Z"/><path class="cls-19" d="m58.27,34.9s-.02,0-.04-.01c-1.9-1.34-4.57-1.52-6.64-.45-.03.02-.07,0-.08-.03-.02-.03,0-.07.03-.08,2.11-1.09,4.82-.9,6.76.46.03.02.03.06.02.09-.01.02-.03.03-.05.03Z"/><path class="cls-19" d="m72.99,27.4s-.03,0-.04-.02c-.03-.02-.03-.06,0-.09,1.89-2.18,4.73-3.44,7.61-3.37.03,0,.06,0,.06.04,0,.03-.03.04-.06.04h0c-2.84,0-5.65,1.19-7.52,3.35-.01.01-.03.05-.05.05Z"/><rect class="cls-6" x="64.71" y="25.29" width="1.37" height="10.39"/><rect class="cls-18" x="64.71" y="44.7" width="1.37" height="10.39"/><rect class="cls-6" x="41.12" y="38.43" width="1.37" height="7.64"/><path class="cls-19" d="m63.29,61.06h-19.12c-1.32,0-2.4-1.08-2.4-2.41V20.25c0-1.33,1.07-2.41,2.4-2.41h19.13c1.32,0,2.4,1.08,2.4,2.41v38.41c0,1.33-1.07,2.41-2.4,2.41Z"/><path class="cls-4" d="m62.87,60.31h-18.28c-1.27,0-2.3-1.04-2.3-2.31V20.91c0-1.28,1.03-2.31,2.3-2.31h18.28c1.27,0,2.3,1.04,2.3,2.31v37.09c0,1.28-1.03,2.31-2.3,2.31Z"/><rect class="cls-19" x="47.49" y="17.84" width="12.48" height="2.83"/><rect class="cls-19" x="47.49" y="58.69" width="12.48" height="2.37"/><ellipse class="cls-22" cx="48.66" cy="29.19" rx="5.86" ry="5.88"/><ellipse class="cls-11" cx="48.66" cy="29.19" rx="4.19" ry="4.2"/><ellipse class="cls-12" cx="48.66" cy="29.19" rx="2.51" ry="2.52"/><ellipse class="cls-22" cx="55.28" cy="46.26" rx="3.81" ry="3.82"/><ellipse class="cls-11" cx="55.28" cy="46.26" rx="2.72" ry="2.73"/><ellipse class="cls-12" cx="55.28" cy="46.26" rx="1.63" ry="1.64"/><rect class="cls-25" x="67.73" y="52.17" width="18.04" height="14.44"/><rect class="cls-23" x="71.05" y="37.73" width="12.97" height="14.44"/><rect class="cls-24" x="74.32" y="31.18" width="6.64" height="6.62"/><rect class="cls-15" x="67.56" y="52.17" width="18.38" height="2.77"/><path class="cls-5" d="m85.24,60.02s-.01-.07-.05-.08c0,0,0,0,0,0-.03,0-.07.01-.08.05,0,.03.01.07.05.08.04,0,.07-.01.08-.05Z"/><path class="cls-5" d="m83.66,58.85s-.03-.06-.07-.06c-.03,0-.06.03-.06.06,0,0,0,0,0,0,0,.03.03.06.07.06.03,0,.06-.03.06-.07Z"/><path class="cls-5" d="m85.13,58.81h0s.06-.03.06-.07c0-.03-.03-.06-.07-.06-.03,0-.06.03-.06.07,0,.03.03.06.07.06Z"/><path class="cls-5" d="m85.21,61.76s-.05-.05-.09-.03c-.03.02-.05.05-.03.09,0,0,0,0,0,0,.02.03.05.04.08.03.03-.01.05-.05.03-.08Z"/><path class="cls-5" d="m84.96,57.47s-.01-.06-.04-.07c0,0,0,0,0,0-.03,0-.06,0-.07.04,0,0,0,0,0,0,0,.03.01.06.04.07.03,0,.06-.01.07-.04Z"/><circle class="cls-5" cx="84.67" cy="60.96" r=".07"/><path class="cls-5" d="m84.76,56s0-.07-.04-.08c0,0,0,0,0,0-.03-.01-.07,0-.08.04,0,0,0,0,0,0-.01.03,0,.07.04.08.03,0,.07,0,.08-.04Z"/><path class="cls-5" d="m84.41,63.08s-.04-.06-.07-.06c-.04,0-.06.04-.05.07,0,.04.04.06.07.06.04,0,.06-.04.05-.07Z"/><path class="cls-5" d="m80.58,62.47s-.01-.06-.04-.07c0,0,0,0,0,0-.03,0-.06,0-.07.04,0,0,0,0,0,0,0,.03.01.06.04.07.03,0,.06-.01.07-.04Z"/><circle class="cls-5" cx="83.37" cy="62.42" r=".03"/><path class="cls-5" d="m81.82,61.48s0,0,0,0c.01-.03,0-.07-.04-.08,0,0,0,0,0,0-.03-.01-.07,0-.08.04,0,.03,0,.07.04.08.03.01.07,0,.08-.04Z"/><path class="cls-5" d="m81.56,61.62s-.07-.01-.09.01c-.02.03-.01.07.01.09.03.02.07.01.09-.01.02-.03.01-.07-.02-.09Z"/><path class="cls-5" d="m83.27,61.96s0-.07-.04-.08c-.03-.01-.07,0-.08.04,0,0,0,0,0,0-.01.03,0,.07.04.08,0,0,0,0,0,0,.03.01.07,0,.08-.04Z"/><path class="cls-5" d="m84.6,62.4s0,.07.04.08c.03.01.07,0,.08-.04,0-.03,0-.07-.04-.08-.03-.01-.07,0-.08.04,0,0,0,0,0,0Z"/><path class="cls-5" d="m84.14,62.42h0s.01.04.03.04c.02,0,.03-.02.03-.03,0-.02-.02-.03-.03-.03-.02,0-.03.01-.03.03Z"/><path class="cls-5" d="m82.3,60.33s.01-.06-.01-.08c-.02-.02-.06-.01-.08.01,0,0,0,0,0,0-.02.02-.01.06,0,.07,0,0,0,0,0,0,.02.02.06.01.08,0,0,0,0,0,0,0Z"/><path class="cls-5" d="m83.99,63.8s.03.02.04.02c.02,0,.02-.02.02-.04,0,0,0,0,0,0,0-.02-.03-.03-.04-.02-.02,0-.02.03-.02.05Z"/><path class="cls-5" d="m84.41,64.88s.01.03.03.04c.02,0,.03-.01.03-.03h0s-.01-.03-.03-.03h0s-.03.01-.03.03Z"/><path class="cls-5" d="m85.25,63.82s0,0,0,0v-.05s-.02.04,0,.05Z"/><path class="cls-5" d="m83.41,61.12s0-.06-.02-.08c-.03-.02-.06-.01-.08.01-.02.03-.01.06.01.08.02.02.06.01.08-.01,0,0,0,0,0,0Z"/><path class="cls-5" d="m84.22,64.99s0,.04.03.05h0s.04,0,.05-.03c0-.02-.01-.04-.03-.05-.02,0-.04,0-.04.03Z"/><path class="cls-5" d="m85.12,63.69s0,0,0,0c0,.02,0,.04.02.05.02,0,.04,0,.04-.02,0,0,0,0,0,0,0-.01,0-.03-.01-.04,0,0,0,0,0,0-.02,0-.03,0-.04.01Z"/><path class="cls-5" d="m80.38,61s0-.07-.04-.08c0,0,0,0,0,0-.03-.01-.07,0-.08.04,0,0,0,0,0,0-.01.03,0,.07.04.08.03,0,.07,0,.08-.04Z"/><path class="cls-5" d="m83.3,60.73s0,0,0,0c0-.02,0-.04-.02-.04-.01,0-.03,0-.04.01,0,0,0,0,0,0,0,.02,0,.04.02.04.02,0,.04,0,.04-.02Z"/><circle class="cls-5" cx="82.79" cy="62.6" r=".06"/><path class="cls-5" d="m79.28,63.85s-.03-.06-.07-.06c-.03,0-.06.03-.06.06,0,0,0,0,0,0,0,.03.03.06.07.06.03,0,.06-.03.06-.07Z"/><path class="cls-5" d="m84.82,64.77s.05.04.08.03c0,0,0,0,0,0h0s.05-.05.03-.08c-.01-.03-.05-.04-.08-.03,0,0,0,0,0,0-.03.02-.04.05-.03.08,0,0,0,0,0,0Z"/><path class="cls-5" d="m83.4,64.81s0,0,0,0c0-.02-.01-.04-.03-.05-.02,0-.04,0-.04.03,0,.02,0,.04.02.04,0,0,0,0,0,0,.02,0,.04,0,.05-.03Z"/><circle class="cls-5" cx="83.64" cy="64.86" r=".03"/><path class="cls-5" d="m83.82,64.98s.05-.03.05-.06c0,0,0,0,0,0,0-.03-.03-.05-.06-.05,0,0,0,0,0,0-.03,0-.05.03-.05.06,0,.03.03.05.06.05Z"/><path class="cls-5" d="m85.17,64.75s.05-.03.05-.06c0-.03-.03-.05-.06-.05,0,0,0,0,0,0-.01,0-.02,0-.03,0,0,0,0,0,0,0,0,0,0,0,0,0h0s-.02.03-.01.05c0,.03.03.05.06.04Z"/><path class="cls-5" d="m84.88,64.32s.02-.05,0-.07c0,0,0,0,0,0-.02-.02-.05-.02-.07,0,0,0,0,0,0,0-.02.02-.02.05,0,.07.02.02.05.02.07,0,0,0,0,0,0,0Z"/><path class="cls-5" d="m82.53,65.14s-.04-.05-.07-.05c-.03,0-.05.03-.05.06,0,.03.03.05.06.05,0,0,0,0,0,0,.03,0,.05-.03.05-.06Z"/><path class="cls-5" d="m82.39,65.4s0,0,0,0c0-.03-.01-.07-.04-.08,0,0,0,0,0,0-.03,0-.07.01-.08.05,0,.04.01.07.05.08h0s.07-.01.08-.04Z"/><path class="cls-5" d="m80.86,65.02s-.01-.07-.05-.08c0,0,0,0,0,0-.03,0-.07.01-.08.05,0,.03.01.07.05.08.04,0,.07-.01.08-.05Z"/><circle class="cls-5" cx="80.29" cy="65.96" r=".07"/><path class="cls-5" d="m83.61,64.24s.01-.07-.02-.09c0,0,0,0,0,0-.03-.02-.07-.01-.09.02-.02.03-.01.07.02.09.03.02.07.01.09-.02,0,0,0,0,0,0Z"/><path class="cls-5" d="m81.18,65.36s-.04-.05-.07-.05c-.03,0-.05.03-.05.06,0,.03.03.05.06.05.03,0,.05-.03.05-.07Z"/><path class="cls-5" d="m82.27,63.71s0,0,0,0c.03,0,.06-.03.06-.07,0-.03-.03-.06-.07-.06-.03,0-.06.03-.06.06,0,0,0,0,0,0,0,.03.03.06.06.06Z"/><circle class="cls-5" cx="83.28" cy="64.1" r=".03"/><path class="cls-5" d="m82.31,63.37s.01-.07-.02-.09c0,0,0,0,0,0-.03-.02-.07-.01-.09.02-.02.03-.01.07.02.09.03.02.07.01.09-.02,0,0,0,0,0,0Z"/><path class="cls-5" d="m83.24,63.08s-.01-.06-.04-.07c0,0,0,0,0,0-.03,0-.06,0-.07.04,0,0,0,0,0,0,0,.03.01.06.04.07,0,0,0,0,0,0,.03,0,.06-.01.07-.04Z"/><path class="cls-5" d="m84.5,63.3s0,0,0,0c.02.01.04,0,.05-.01.01-.02,0-.04,0-.05,0,0,0,0,0,0-.02-.01-.04,0-.05,0-.01.02,0,.04,0,.05Z"/><path class="cls-5" d="m84.57,63.39s-.01-.06-.04-.07c-.03,0-.06.01-.07.04,0,.03.01.06.04.07.03,0,.06-.01.07-.04Z"/><path class="cls-5" d="m84.45,63.38s0-.03-.01-.04c0,0,0,0,0,0-.02,0-.04,0-.04.02s0,.04.02.04c.02,0,.04,0,.04-.02Z"/><path class="cls-5" d="m84.74,63.49s.03.03.04.02c.02,0,.03-.03.02-.04,0-.02-.03-.02-.05-.02-.02,0-.02.03-.02.04Z"/><path class="cls-5" d="m80.75,63.81s.06-.03.06-.07c0-.03-.03-.06-.07-.06-.03,0-.06.03-.06.07,0,.03.03.06.07.06Z"/><path class="cls-5" d="m81.91,62.78s-.01-.06-.04-.07c0,0,0,0,0,0-.03,0-.06,0-.07.04,0,0,0,0,0,0,0,.03.01.06.04.07.03,0,.06-.01.07-.04Z"/><path class="cls-5" d="m83.8,63.6s.06-.03.06-.07c0,0,0,0,0,0,0-.03-.03-.06-.07-.06h0s-.06.03-.06.07c0,.03.03.06.07.06Z"/><path class="cls-5" d="m84.03,63.57s.07.02.09-.01c0,0,0,0,0,0,.02-.03.02-.07-.01-.09,0,0,0,0,0,0-.03-.02-.07-.01-.09.01-.02.03-.01.07.01.09Z"/><path class="cls-7" d="m77.11,66.66c-.06,0-.12-.05-.13-.11-.41-4.69-.47-9.57-.19-14.5,0-.07.06-.12.13-.12.07,0,.12.06.12.13-.28,4.93-.22,9.79.19,14.47,0,.07-.05.13-.11.14,0,0,0,0-.01,0Z"/><path class="cls-7" d="m76.35,66.99c-.07,0-.12-.05-.13-.12-.06-1.05-.12-2.11-.18-3.13-.18-2.94-.36-5.77-.33-8.64-.34,2.85-.65,5.72-.94,8.55-.09.92-.2,1.96,0,2.94.01.07-.03.13-.1.15-.07.01-.13-.03-.15-.1-.19-1.02-.09-2.08,0-3.01.38-3.84.82-7.73,1.31-11.56,0-.07.07-.12.14-.11.07,0,.12.07.11.13-.27,3.94-.04,7.68.21,11.63.05.88.11,1.79.16,2.7,0,0,0,.01,0,.02l.02.42c0,.07-.05.13-.12.13,0,0,0,0,0,0Z"/><path class="cls-7" d="m79.27,50.83h-3.45c-.21,0-.38-.17-.38-.38h0c0-.21.17-.38.38-.38h3.45c.21,0,.38.17.38.38h0c0,.21-.17.38-.38.38Z"/><path class="cls-7" d="m77.25,37.93s-.08-.05-.08-.09c-.02-.49-.06-.96-.1-1.4-.04-.45-.08-.91-.1-1.4-.03-.58-.14-2.25-.23-3.29-.24,1.54-.45,3.02-.66,4.59l-.02.15c-.04.26-.08.46-.12.67-.04.18-.07.37-.11.6,0,.05-.05.08-.1.07-.05,0-.08-.05-.07-.1.04-.23.07-.42.11-.6.04-.21.08-.41.12-.66l.02-.15c.24-1.78.47-3.45.76-5.22,0-.04.04-.07.08-.07.04,0,.08.03.08.07.1.8.27,3.31.3,3.93.02.49.06.95.1,1.39.04.45.08.92.1,1.41,0,.05-.03.1-.08.1,0,0,0,0,0,0Z"/><path class="cls-7" d="m77.67,37.82s-.08-.03-.08-.07c-.21-1.91-.21-3.44-.14-5.41-.21,1.33-.34,2.64-.48,4.01-.05.46-.09.93-.14,1.4,0,.05-.05.08-.09.07-.05,0-.08-.05-.07-.09.05-.47.1-.93.14-1.4.18-1.79.35-3.48.7-5.24,0-.04.05-.07.09-.07.04,0,.08.04.07.09-.12,2.6-.17,4.34.08,6.62,0,.05-.03.09-.07.09,0,0,0,0,0,0Z"/><path class="cls-7" d="m78.75,37.83s-.08-.03-.08-.08c-.19-2.33-.34-4.16-.45-6.45,0-.07,0-.2.08-.28.04-.03.09-.03.12,0,.03.04.03.09,0,.12-.03.02-.03.09-.03.15.11,2.28.25,4.11.45,6.44,0,.05-.03.09-.08.09,0,0,0,0,0,0Z"/><rect class="cls-28" x="69.87" y="37.73" width="15.33" height="8.56"/><path class="cls-15" d="m69.61,50.64c-.5-.57-.61-2.41-.58-2.91.08-1.13.14-2.34-.06-3.5-.11-.69-.45-1.89-1.43-2.24-1.01-.36-2.06.43-2.65,1.2-1.85,2.44-1.52,5.65-1.15,7.34l-.2.04c-.29-1.35-.36-2.71-.2-3.92.18-1.4.65-2.6,1.39-3.58.63-.83,1.76-1.66,2.88-1.27,1.08.38,1.45,1.66,1.57,2.39.2,1.18.14,2.4.06,3.54-.04.58.1,2.27.53,2.77l-.15.13Z"/><path class="cls-10" d="m57.33,47.68v21.54h17.58v-21.54h-17.58Zm5.93,2.69c-.24,0-.44-.2-.44-.44s.2-.44.44-.44.44.2.44.44c0,.24-.2.44-.44.44Zm5.78,0c-.24,0-.44-.2-.44-.44s.2-.44.44-.44.44.2.44.44c0,.24-.2.44-.44.44Z"/><polygon class="cls-13" points="57.16 68.94 58.35 69.51 58.97 48.04 57.34 47.69 57.16 68.94"/><polygon class="cls-13" points="73.23 69.6 74.97 69.23 74.92 47.69 71.93 48.18 73.23 69.6"/><polygon class="cls-15" points="56.13 70.36 58.48 69.15 58.97 48.04 56.13 48.87 56.13 70.36"/><polygon class="cls-15" points="73.68 70.36 73.03 66.9 71.93 48.18 73.67 48.86 73.68 70.36"/><path class="cls-26" d="m56.1,48.83v21.57h17.6v-21.57h-17.6Zm5.97,2.72c-.24,0-.44-.2-.44-.44s.2-.44.44-.44.44.2.44.44-.2.44-.44.44Zm5.8,0c-.24,0-.44-.2-.44-.44s.2-.44.44-.44.44.2.44.44-.2.44-.44.44Z"/><path class="cls-13" d="m62.64,51.15h-.24c0-.22-.16-.36-.36-.36s-.36.14-.36.36h-.24c0-.38.27-.6.6-.6.33,0,.6.22.6.6Z"/><path class="cls-13" d="m68.43,51.15h-.24c0-.22-.16-.36-.36-.36s-.36.14-.36.36h-.24c0-.38.27-.6.6-.6s.6.22.6.6Z"/><path class="cls-15" d="m68.09,51.52c-.5-.57-.61-2.41-.58-2.91.08-1.13.14-2.34-.06-3.5-.11-.69-.45-1.89-1.43-2.24-1.01-.36-2.06.43-2.65,1.2-1.85,2.44-1.47,5.81-1.11,7.5l-.2.04c-.29-1.35-.4-2.87-.24-4.08.18-1.4.65-2.6,1.39-3.58.63-.83,1.76-1.66,2.88-1.27,1.08.38,1.45,1.66,1.57,2.39.2,1.18.14,2.4.06,3.54-.04.58.1,2.27.53,2.77l-.15.13Z"/><path class="cls-13" d="m62.04,51.75c-.33,0-.6-.3-.6-.6h.24c0,.19.16.36.36.36s.36-.17.36-.36h.24c0,.3-.27.6-.6.6Z"/><path class="cls-13" d="m67.83,51.75c-.33,0-.6-.3-.6-.6h.24c0,.19.16.36.36.36s.36-.17.36-.36h.24c0,.3-.27.6-.6.6Z"/><path class="cls-21" d="m43.62,16.53c-.37-.14-.73-.3-1.07-.48.15-.39.31-.75.48-1.07.37.14.72.3,1.07.48-.13.36-.3.71-.48,1.07Z"/><path class="cls-27" d="m44.4,43.57h-25.59c-1.64,0-2.98-1.36-2.98-3.02v-12.89c0-1.66,1.34-3.02,2.98-3.02h25.59c1.64,0,2.98,1.36,2.98,3.02v12.89c0,1.66-1.34,3.02-2.98,3.02Z"/><circle class="cls-14" cx="77.41" cy="21.33" r=".45"/><rect class="cls-21" x="72.45" y="15.04" width=".46" height=".46" transform="translate(36.53 80.14) rotate(-72.73)"/><rect class="cls-6" x="75.02" y="15.76" width="1.25" height="1.25" transform="translate(37.54 83.76) rotate(-72.73)"/><rect class="cls-16" x="73.25" y="20.32" width="1.25" height="1.25" transform="translate(31.94 85.28) rotate(-72.73)"/><path class="cls-18" d="m74.18,17.97s-.04-.01-.05-.03c-.59-1.26-.23-2.9.84-3.79.02-.02.05-.01.07,0,.02.02.01.05,0,.07-1.03.87-1.38,2.45-.82,3.68.01.02,0,.05-.02.07,0,0-.01,0-.02,0Z"/><path class="cls-18" d="m77.48,19.8s-.03,0-.04-.02c-.02-.02-.02-.05,0-.07.72-.7,1.99-.75,2.77-.12.02.02.02.05,0,.07-.02.02-.05.02-.07,0-.74-.6-1.95-.55-2.64.11,0,0-.02.01-.03.01Z"/><path class="cls-21" d="m70.6,31.01c-.45-.19-.88-.41-1.29-.65.21-.47.43-.9.65-1.29.44.2.87.41,1.29.65-.19.43-.4.86-.65,1.29Z"/><polygon class="cls-14" points="86 31.9 85.28 32.98 84.29 32.3 85.01 31.22 86 31.9"/><polygon class="cls-14" points="35.69 15.78 35.18 16.52 34.49 16.06 34.99 15.31 35.69 15.78"/><rect class="cls-20" x="29.27" y="31.84" width="4.1" height=".43" transform="translate(63.38 .74) rotate(90)"/><rect class="cls-8" x="29.27" y="35.93" width="4.1" height=".43" transform="translate(67.47 4.83) rotate(90)"/><path class="cls-17" d="m45,32.87s-.05-.04-.08-.04c-.02,0-.05,0-.07.02-.04.04-.05.1-.01.15.52.64.52,1.56,0,2.2-.04.04-.03.11.01.15.02.02.04.02.07.02.03,0,.06-.01.08-.04.58-.71.58-1.75,0-2.46Z"/><path class="cls-17" d="m44.59,33.13s-.05-.04-.08-.04c-.02,0-.05,0-.06.02-.04.03-.05.1-.02.15.39.5.39,1.19,0,1.69-.04.05-.03.11.02.15.02.01.04.02.06.02.03,0,.06-.02.08-.04.44-.57.44-1.37,0-1.94Z"/><path class="cls-17" d="m44.07,33.35s-.04,0-.06.02c-.05.03-.06.1-.02.14.25.35.25.83,0,1.18-.03.05-.02.11.02.14.02.01.04.02.06.02.03,0,.07-.02.09-.04.3-.42.3-.99,0-1.42-.02-.03-.05-.04-.09-.04Z"/><path class="cls-17" d="m43.65,33.6s-.04,0-.05.01c-.05.03-.06.09-.04.14.12.21.12.48,0,.69-.03.05-.01.11.04.14.02,0,.03.01.05.01.04,0,.07-.02.09-.05.16-.28.16-.62,0-.9-.02-.03-.05-.05-.09-.05Z"/><path class="cls-17" d="m17.55,31.06c.11,0,.22.08.22.21,0,.12-.09.22-.21.22-.12,0-.22-.09-.22-.22,0-.13.1-.22.21-.22Zm-.16.22s.02.02.04.03c.03.02.07.03.1.04,0,0,0,0,0,0,0-.04,0-.08,0-.12,0,0,0,0,0,0-.06,0-.1.03-.14.06Zm.19.07c.06,0,.1-.03.14-.07-.04-.04-.09-.06-.14-.06v.13Zm.14-.12s0,0,0,0c0-.01-.01-.02-.02-.04-.03-.04-.07-.07-.12-.08,0,0,0,0,0,0,0,.02,0,.03,0,.05,0,.01,0,.01.01.01.05,0,.09.02.13.05,0,0,0,0,0,0Zm-.33,0h0s0,0,0,0c.04-.03.09-.04.14-.05,0,0,0,0,0,0,0-.02,0-.04,0-.06,0,0,0,0,0,0,0,0-.01,0-.02,0-.05.02-.09.05-.11.1,0,0,0,0,0,0Zm0,.12s0,0,0,0c0,0,0,.01.01.02.03.05.07.08.13.09,0,0,0,0,0,0,0-.02,0-.04,0-.06,0,0,0,0,0,0-.05,0-.09-.02-.13-.05,0,0,0,0,0,0Zm.33,0s0,0,0,0c-.04.03-.08.04-.13.05,0,0,0,0,0,0,0,.02,0,.03,0,.05,0,0,0,0,0,0,.02,0,.03,0,.05-.02.04-.02.07-.05.09-.09,0,0,0,0,0,0Z"/><path class="cls-17" d="m17.61,31.72v-.04h.05v.04h.08v.06h-.08v.07h-.05v-.07h-.17s-.03,0-.03.04v.04h-.05v-.05c0-.05.02-.09.09-.09h.17Z"/><path class="cls-17" d="m17.35,32.19v-.06h.04s-.04-.05-.04-.09c0-.07.05-.13.13-.13h.18v.06h-.17c-.06,0-.09.03-.09.08s.03.08.09.08h.17v.06h-.31Z"/><path class="cls-17" d="m17.35,32.34v-.06h.31v.06h-.04s.05.05.05.09h-.07v-.02s-.02-.08-.09-.08h-.16Z"/><path class="cls-17" d="m17.76,32.49v.06h-.24l.13.11v.09l-.15-.14-.15.14v-.09l.13-.11h-.13v-.06h.41Z"/><path class="cls-17" d="m17.34,32.94c0-.09.06-.15.16-.15s.16.06.16.15-.06.15-.15.15c-.01,0-.02,0-.03,0v-.24c-.05,0-.08.04-.08.09,0,.04.02.06.04.07v.07c-.05-.02-.1-.07-.1-.14Zm.19-.09v.17s.08-.04.08-.09c0-.04-.03-.08-.08-.08Z"/><path class="cls-17" d="m17.66,33.36v.07l-.45-.19v-.07l.15.06.3-.12v.07l-.24.09.24.09Z"/><path class="cls-17" d="m17.66,33.6c0,.08-.04.12-.1.14v-.07s.05-.04.05-.07c0-.05-.04-.09-.11-.09s-.11.03-.11.09c0,.04.02.06.05.07v.07c-.06-.02-.1-.07-.1-.14,0-.09.06-.15.16-.15s.16.06.16.15Z"/><path class="cls-17" d="m17.66,33.93c0,.05-.02.09-.05.11h.04v.06h-.31v-.06h.05s-.05-.06-.05-.11c0-.08.07-.14.16-.14s.16.06.16.15Zm-.06.01s-.04-.09-.1-.09-.11.05-.11.09.04.09.1.09.1-.05.1-.09Z"/><path class="cls-17" d="m17.52,34.63c.06,0,.09-.03.09-.08s-.03-.08-.09-.08h-.17v-.06h.17c.06,0,.09-.03.09-.08s-.03-.08-.09-.08h-.17v-.06h.31v.06h-.04s.04.05.04.09c0,.05-.02.09-.06.11.04.02.06.06.06.11,0,.07-.05.13-.13.13h-.18v-.06h.17Z"/><path class="cls-17" d="m17.66,34.94c0,.08-.06.14-.16.14s-.16-.06-.16-.14c0-.05.03-.09.05-.11h-.19v-.06h.46v.06h-.05s.05.06.05.11Zm-.06-.01s-.04-.09-.1-.09-.1.05-.1.09.04.09.11.09.1-.05.1-.09Z"/><path class="cls-17" d="m17.35,35.43v-.06h.04s-.04-.05-.04-.09c0-.07.05-.13.13-.13h.18v.06h-.17c-.06,0-.09.03-.09.08s.03.08.09.08h.17v.06h-.31Z"/><path class="cls-17" d="m17.34,35.63c0-.07.04-.13.1-.13v.07s-.05.03-.05.06.02.06.04.06c.06,0,.03-.18.14-.18.05,0,.09.05.09.12s-.04.12-.1.12v-.06s.05-.02.05-.06-.01-.05-.03-.05c-.06,0-.03.17-.14.18-.05,0-.09-.05-.09-.12Z"/><path class="cls-17" d="m17.35,35.84s.02-.04.04-.04.04.02.04.04-.02.04-.04.04-.04-.02-.04-.04Z"/><path class="cls-17" d="m17.66,36.08c0,.08-.04.12-.1.14v-.07s.05-.04.05-.07c0-.05-.04-.09-.11-.09s-.11.03-.11.09c0,.04.02.06.05.07v.07c-.06-.02-.1-.07-.1-.14,0-.09.06-.15.16-.15s.16.06.16.15Z"/><path class="cls-17" d="m17.34,36.42c0-.09.06-.15.16-.15s.16.07.16.16-.06.16-.16.16-.16-.07-.16-.16Zm.06,0s.03.09.1.09.1-.05.1-.09-.03-.09-.1-.09-.1.04-.1.09Z"/><path class="cls-17" d="m17.52,37.08c.06,0,.09-.03.09-.08s-.03-.08-.09-.08h-.17v-.06h.17c.06,0,.09-.03.09-.08s-.03-.08-.09-.08h-.17v-.06h.31v.06h-.04s.04.05.04.09c0,.05-.02.09-.06.11.04.02.06.06.06.11,0,.07-.05.13-.13.13h-.18v-.06h.17Z"/><circle class="cls-1" cx="49.63" cy="73.11" r="1.95"/><polyline class="cls-1" points="49.41 72.01 49.63 73.11 50.79 73.11"/><line class="cls-1" x1="49.63" y1="71.16" x2="49.63" y2="71.46"/><line class="cls-1" x1="49.63" y1="74.75" x2="49.63" y2="75.05"/><line class="cls-1" x1="47.69" y1="73.11" x2="47.99" y2="73.11"/><line class="cls-1" x1="51.28" y1="73.11" x2="51.58" y2="73.11"/><path class="cls-2" d="m61.24,6.34c.36-1.61,1.96-2.62,3.56-2.26s2.62,1.96,2.26,3.56"/><path class="cls-2" d="m62.37,6.59c.22-.98,1.2-1.6,2.18-1.38s1.6,1.2,1.38,2.18"/><path class="cls-2" d="m63.5,6.85c.08-.36.44-.59.8-.51s.59.44.51.8"/><circle class="cls-7" cx="28.34" cy="51.42" r="2.81" transform="translate(-6.6 4.23) rotate(-7.66)"/><circle class="cls-17" cx="28.34" cy="51.42" r="2.17"/><circle class="cls-3" cx="28.34" cy="51.42" r="2.81" transform="translate(-6.6 4.23) rotate(-7.66)"/><path class="cls-7" d="m28.12,52.26c-.15-.02-.28-.08-.39-.16-.05-.04-.13-.02-.16.04l-.02.03s-.01.11.03.14c.09.07.21.12.34.16.05.02.09.07.08.12l-.02.14c0,.06.03.12.09.13h0c.06.01.12-.03.13-.09l.03-.17s.05-.09.1-.09c.32-.03.53-.25.57-.51.05-.31-.1-.53-.44-.74-.29-.18-.4-.29-.37-.47.02-.14.15-.29.42-.24.15.02.26.08.33.12.05.03.12.01.15-.04v-.03c.04-.05.03-.12-.02-.15-.07-.04-.15-.08-.26-.11-.06-.02-.09-.07-.08-.13l.02-.13c0-.06-.03-.12-.09-.13s-.12.03-.13.09l-.03.16s-.05.09-.1.09c-.29.03-.5.21-.54.48-.05.31.15.51.48.71.24.15.36.29.33.49s-.23.32-.48.28Z"/></svg>