<?xml version="1.0" encoding="UTF-8"?><svg id="Layer_1" xmlns="http://www.w3.org/2000/svg" viewBox="0 0 102.22 79.56"><defs><style>.cls-1{fill:#e63f38;}.cls-2{fill:#fff;}.cls-3{fill:#feb991;}.cls-4{fill:#bad0f7;}.cls-5{fill:#cc1f1f;}.cls-6{fill:#d28c73;}.cls-7{fill:#d6e3f8;}.cls-8{fill:#d4ccdd;}.cls-9{fill:#acc5ea;}.cls-10{fill:#dee3fc;}.cls-11{fill:#405dad;}.cls-12{fill:#15173f;}.cls-13{fill:#1d1d56;}.cls-14{fill:#96b1cc;}.cls-15{fill:#6f85ee;}.cls-16{fill:#2e2e75;}.cls-17{fill:none;opacity:.15;}</style></defs><g id="Table"><polygon class="cls-7" points="24.05 42.85 23.98 45.71 23.35 73.48 22.1 73.48 22.1 42.85 24.05 42.85"/><polygon class="cls-14" points="24.05 42.85 23.98 45.71 22.1 45.46 22.1 42.85 24.05 42.85"/><polygon class="cls-7" points="38.93 42.88 38.93 73.52 37.69 73.52 37.09 47.41 36.99 42.88 38.93 42.88"/><polygon class="cls-14" points="38.93 42.88 38.93 47.8 37.09 47.41 36.99 42.88 38.93 42.88"/><polygon class="cls-7" points="61.91 42.85 61.84 45.71 61.21 73.48 59.96 73.48 59.96 42.85 61.91 42.85"/><polygon class="cls-7" points="76.8 42.88 76.8 73.52 75.55 73.52 74.96 47.41 74.85 42.88 76.8 42.88"/><polygon class="cls-14" points="61.91 42.85 61.84 45.71 59.96 45.46 59.96 42.85 61.91 42.85"/><polygon class="cls-14" points="76.8 42.88 76.8 47.8 74.96 47.41 74.85 42.88 76.8 42.88"/><rect class="cls-7" x="20.31" y="42.22" width="58.31" height="2.02"/></g><g id="Plant"><path class="cls-9" d="m81.1,37.42s1.04,3.68,3.23,5c0,0-.61-3-3.23-5Z"/><polygon class="cls-9" points="84.15 42.96 83.24 34.7 83.54 34.7 84.74 42.96 84.15 42.96"/><path class="cls-9" d="m85.22,34.09c-.04-.1-1.09,3.63-.3,6.83,0,0,1.42-3.99.3-6.83Z"/><rect class="cls-12" x="84.04" y="34.92" width=".19" height="7.73" transform="translate(-4.68 12.44) rotate(-8.23)"/><path class="cls-9" d="m85.14,42.61s1.45-3.76,4.9-6.43c0,0-1.04,3.58-4.04,6.43h-.86Z"/><path class="cls-12" d="m86.01,42.62l-.12-.15s3.07-2.62,4.03-6.28l.18.05c-.98,3.72-4.06,6.35-4.09,6.38Z"/><polygon class="cls-9" points="87.35 32.62 85.14 43.34 85.78 43.34 87.81 32.72 87.35 32.62"/><rect class="cls-12" x="82.86" y="36.61" width="8.35" height=".19" transform="translate(34.81 115.42) rotate(-79.31)"/><polygon class="cls-9" points="87.09 42.15 86.98 43.19 86.58 47 83.76 47 83.25 42.15 87.09 42.15"/><path class="cls-14" d="m84.84,33.8c-.03-.35-.33-.61-.68-.59l-.23.02-.02-.23c-.03-.35-.33-.61-.68-.59h0c-.35.03-.61.33-.59.68l.02.23-.23.02c-.35.03-.61.33-.59.68.03.35.33.61.68.59l.23-.02.02.23c.03.35.33.61.68.59h0c.35-.03.61-.33.59-.68l-.02-.23.23-.02c.35-.03.61-.33.59-.68Z"/><path class="cls-14" d="m88.73,32.18l-.18-.15.15-.18c.22-.27.17-.67-.1-.89-.27-.22-.67-.17-.89.1l-.15.18-.18-.15c-.27-.22-.67-.17-.89.1-.22.27-.17.67.1.89l.18.15-.15.18c-.22.27-.17.67.1.89h0c.27.22.67.17.89-.1l.15-.18.18.15c.27.22.67.17.89-.1h0c.22-.27.17-.67-.1-.89Z"/><circle class="cls-14" cx="85.31" cy="32.63" r=".47"/><circle class="cls-14" cx="88.17" cy="36.43" r=".51"/><circle class="cls-14" cx="82.55" cy="37.47" r=".53"/><path class="cls-12" d="m83.88,41.33c-.97-2.32-2.82-3.83-2.84-3.84l.12-.15s1.9,1.55,2.89,3.91l-.18.07Z"/><polygon class="cls-14" points="86.98 43.19 86.58 47 84.9 47 86.98 43.19"/><path class="cls-12" d="m85.08,40.97l-.18-.06s1.44-4.16.25-6.73l.17-.08c1.23,2.64-.18,6.7-.24,6.87Z"/><rect class="cls-12" x="83.23" y="42.02" width="3.86" height=".19"/></g><g id="Plant-2"><path class="cls-9" d="m18.34,46.89c-.29,2.69-.93,5.97-2.12,9.92l-.91-.11s.03-1.27.12-3.17c.22-5.03.8-14.52,2.04-16.75,0,0,1.66,2.92.87,10.1Z"/><path class="cls-12" d="m15.86,58.01h-.19c.11-12.1,1.69-21.21,1.71-21.3l.19.03c-.02.09-1.59,9.18-1.71,21.26Z"/><path class="cls-13" d="m18.34,46.89c-.29,2.69-.93,5.97-2.12,9.92l-.91-.11s.03-1.27.12-3.17c.95-2.8,2.12-5.17,2.91-6.64Z"/><path class="cls-9" d="m15.48,56.42s3.19-8.7,5.18-10.87c0,0,1.31,5.35-4.49,11.15l-.68-.28Z"/><path class="cls-9" d="m10.19,39.97s4.89,7.11,5.35,16.73h-.17s-6.2-10.35-5.18-16.73Z"/><path class="cls-12" d="m15.27,56.72c-1.46-9.6-5.13-16.63-5.17-16.7l.17-.09c.04.07,3.72,7.12,5.19,16.76l-.19.03Z"/><path class="cls-12" d="m15.43,57.73l-.18-.06c2.53-7.21,5.3-12.11,5.33-12.16l.17.09s-2.78,4.94-5.31,12.13Z"/><polygon class="cls-9" points="18.95 56.08 18.58 60.66 17.53 73.49 13.49 73.49 12.07 56.08 18.95 56.08"/><polygon class="cls-14" points="18.58 60.66 17.53 73.49 14.72 73.49 18.58 60.66"/></g><g id="Cupboard"><rect class="cls-4" x="87.56" y="71.32" width=".89" height="2.16"/><rect class="cls-4" x="93.6" y="71.32" width=".89" height="2.16"/><rect class="cls-4" x="79.1" y="71.32" width=".89" height="2.16"/><rect class="cls-4" x="85.14" y="71.32" width=".89" height="2.16"/><rect class="cls-4" x="88.81" y="46.91" width="6.64" height="24.86"/><path class="cls-2" d="m95.48,71.8h-6.7v-24.92h6.7v24.92Zm-6.64-.06h6.58v-24.79h-6.58v24.79Z"/><polygon class="cls-7" points="89.05 71.76 78.37 71.76 78.37 46.93 89.06 46.93 89.05 71.76"/><path class="cls-9" d="m78.91,48.75v22.33h9.39v-22.33h-9.39Zm2.86.33v.68h3.38v-.68h2.81v4.02h-8.73v-4.02h2.54Zm-2.54,17.25v-4.34h2.54v.72h3.38v-.72h2.81v4.34h-8.73Zm0-4.67v-3.96h2.54v.7h3.38v-.7h2.81v3.96h-8.73Zm0-4.29v-3.94h2.54v.72h3.38v-.72h2.81v3.94h-8.73Zm0,13.38v-4.09h2.54v.72h3.38v-.72h2.81v4.09h-8.73Z"/></g><g id="Paper"><rect class="cls-7" x="46.06" y="8.8" width="8.35" height="10.3"/><rect class="cls-2" x="47.12" y="10.09" width="2.74" height=".4"/><rect class="cls-2" x="47.12" y="11.53" width="6.34" height=".4"/><rect class="cls-2" x="47.12" y="12.96" width="6.34" height=".4"/><rect class="cls-2" x="47.12" y="14.4" width="6.34" height=".4"/><rect class="cls-2" x="47.12" y="15.84" width="6.34" height=".4"/><rect class="cls-2" x="47.12" y="17.27" width="2.14" height=".4"/><circle class="cls-4" cx="54.39" cy="19.07" r="2.04"/><path class="cls-2" d="m54.15,19.89l-.84-.84c-.07-.07-.07-.18,0-.25h0c.07-.07.18-.07.25,0l.59.6,1.1-1.06c.07-.07.19-.07.25,0h0c.07.07.07.19,0,.25l-1.36,1.3Z"/></g><g id="Money"><circle class="cls-1" cx="46.29" cy="23.41" r="1.88"/><path class="cls-2" d="m46.14,24.56v-.27c-.19,0-.37-.06-.48-.12l.08-.33c.12.06.28.12.47.12.16,0,.27-.06.27-.17s-.09-.17-.3-.24c-.3-.1-.51-.24-.51-.51,0-.25.17-.44.48-.5v-.27h.28v.25c.19,0,.32.05.41.09l-.08.32c-.07-.03-.2-.1-.41-.1-.18,0-.24.08-.24.16,0,.09.1.15.34.24.33.12.47.27.47.53s-.18.46-.5.52v.29h-.28Z"/></g><g id="Chat_Icon"><path class="cls-1" d="m79.88,7.54h-9.3c-.27,0-.5.22-.5.5v4.05c0,.27.22.5.5.5h.62v1.63l1.5-1.63h7.18c.27,0,.5-.22.5-.5v-4.05c0-.27-.22-.5-.5-.5Z"/><rect class="cls-2" x="71.11" y="8.67" width="3.62" height=".42"/><rect class="cls-2" x="71.11" y="9.83" width="8.26" height=".42"/><rect class="cls-2" x="71.11" y="11" width="8.26" height=".42"/></g><g id="Chat_Icon-2"><path class="cls-7" d="m20.43,6.97h9.3c.27,0,.5.22.5.5v4.05c0,.27-.22.5-.5.5h-.62v1.63l-1.5-1.63h-7.18c-.27,0-.5-.22-.5-.5v-4.05c0-.27.22-.5.5-.5Z"/><circle class="cls-2" cx="22.91" cy="9.49" r=".48"/><circle class="cls-2" cx="25" cy="9.49" r=".48"/><circle class="cls-2" cx="27.14" cy="9.49" r=".48"/></g><g id="Man_shaking_hands"><g id="Man_shaking_hands-2"><path class="cls-12" d="m34.22,19.35l.29,1.21s.22.31.45.37l-.13-1.31-.61-.27Z"/><path class="cls-6" d="m37.73,21.78h0s.16.87.16.87l.29,1.53-3.63.09.19-3.47h0s.01-.84.01-.84c-.19-.12-.34-.23-.47-.34-.43-.37-.54-.68-.5-.92,0,0,0,0,0,0,.05-.36.42-.56.42-.56l.23-2.2,4.38.37c.02.09.04.18.06.26h0c.1.46.18.88.23,1.25h0c.59,4.25-1.38,3.97-1.38,3.97Z"/><path class="cls-12" d="m35.12,16.49l.24,2.38-.46-.12s-.24-.59-.69-.54c-.19.02-.47.35-.44.63,0,0-1.7-2.95-.17-3.1,0,0,2.41-3.86,3.57-1.36,0,0,1.81-.91,1.42.67,0,0,1.4-.5.88,1.54l-.35,1.32-.25-1.35s-1.07.48-2.75-.08c0,0,.41.5,1.16.7,0,0-1.46-.12-2.15-.68Z"/><path class="cls-12" d="m37.9,22.65c-1.62-.22-2.06-1.83-2.07-1.88.33.47,1.3.82,1.91,1.02l.16.87Z"/><path class="cls-3" d="m68.45,19.91c.34-.25.71-.76.58-1.26-.07-.26-.2-.37-.35-.39.02-1.07-.29-2.16-1.54-2.42-2.61-.54-3.73,1.39-3.48,3.43.25,2.04-.05,2.9,1.8,3.26l-.08,2.68,3.53-.19-.65-4.46s.09-.26.19-.65Z"/><path class="cls-12" d="m68.01,20.05c-.19-.13-.1-.83,0-1.34.04-.22.51-.59.81-.4.25-1.06.27-2.28-.82-2.55-.32-.87-1.12-.68-1.58-.58-1.43.29-1.87.3-2.45-.05-.43-.25-.83-.16-.9.13-.13.52.15.8.15.8-.53.15-.56.51-.53.73.06.58.39.83.84.88.05.35.14.7.13.81,0,0,.04-.39.18-.8,1.1-.05,2.58-.89,2.58-.89-.17.48.77.71,1.13.78.08.61.19,2.12-.57,3.23,0,0-1.97-.85-3.23-.3,0,0-.27,2.12,1.96,2.09,0,0,.75-.07,1.19-.52,0,0,.73-.64,1.31-2.02-.09.04-.17.04-.21.01Z"/><polygon class="cls-6" points="31.5 68.27 31.03 70.21 30.9 70.76 30.6 72 28.37 72 28.58 70.43 28.65 69.87 28.86 68.23 31.5 68.27"/><polygon class="cls-12" points="31.5 68.27 31.03 70.21 30.9 70.76 28.58 70.43 28.65 69.87 28.86 68.23 31.5 68.27"/><path class="cls-12" d="m28.47,71.24c.19.2.99.87,2.3-.04.01,0,.03,0,.04,0l3.62,1.94c.17.09.11.35-.09.35h-5.91c-.27,0-.47-.25-.41-.52l.38-1.7s.04-.04.06-.02Z"/><polygon class="cls-6" points="40.2 68.24 39.92 70.73 39.78 72 37.55 72 37.55 70.38 37.56 68.2 40.2 68.24"/><polygon class="cls-12" points="40.2 68.24 39.92 70.73 37.55 70.38 37.56 68.2 40.2 68.24"/><path class="cls-12" d="m37.52,71.24c.19.2.99.87,2.3-.04.01,0,.03,0,.04,0l3.62,1.94c.17.09.11.35-.09.35h-5.91c-.27,0-.47-.25-.41-.52l.38-1.7s.04-.04.06-.02Z"/><polygon class="cls-3" points="64.66 68.24 64.95 70.73 65.09 72 67.32 72 67.31 70.38 67.3 68.2 64.66 68.24"/><polygon class="cls-12" points="64.66 68.24 64.95 70.73 67.31 70.38 67.3 68.2 64.66 68.24"/><path class="cls-12" d="m67.35,71.24c-.19.2-.99.87-2.3-.04-.01,0-.03,0-.04,0l-3.62,1.94c-.17.09-.11.35.09.35h5.91c.27,0,.47-.25.41-.52l-.38-1.7s-.04-.04-.06-.02Z"/><polygon class="cls-3" points="76.28 72 74.06 72 73.75 70.77 73.12 68.24 75.76 68.2 76.07 70.41 76.28 72"/><polygon class="cls-12" points="76.07 70.41 73.75 70.77 73.12 68.24 75.76 68.2 76.07 70.41"/><path class="cls-12" d="m76.19,71.24c-.19.2-.99.87-2.3-.04-.01,0-.03,0-.04,0l-3.62,1.94c-.17.09-.11.35.09.35h5.91c.27,0,.47-.25.41-.52l-.38-1.7s-.04-.04-.06-.02Z"/><path class="cls-3" d="m63.46,45.92c-.19.19-.38,0-.38,0-.13.19-.38,0-.38,0-.25.19-.38-.06-.38-.06-.45.32-.38-.89-.38-.89-.06-.7.25-1.14.25-1.14v-1.08l1.08.32.03.52.16,2.34Z"/><path class="cls-11" d="m64.4,45.13c.19,0,.35.16.35.35h0v1.63h-.35v-1.12c0-.18-.14-.32-.32-.32h-3.21c-.18,0-.32.14-.32.32v1.12h-.35v-1.63h0c0-.19.16-.35.35-.35h3.85Z"/><rect class="cls-15" x="57.19" y="46.95" width="10.87" height="7.93" rx=".49" ry=".49"/><polygon class="cls-11" points="58.29 49.72 63.28 51.51 68.07 49.79 68.07 49.36 63.28 51.08 58.43 49.34 58.29 49.72"/><rect class="cls-11" x="57.19" y="46.95" width="1.29" height="7.93" rx=".49" ry=".49"/><polygon class="cls-12" points="41.39 41.15 42.41 53.55 41.14 70.18 37.26 70.18 37.32 54.19 35.54 41.15 41.39 41.15"/><polygon class="cls-16" points="39.01 41.12 36.53 53.45 32.43 70.18 28.29 70.18 30.9 54.25 30.71 40.83 39.01 41.12"/><path class="cls-3" d="m57.93,32.5l-.19,1.65-.76-.06s-.03.02-.05.04c-.65.42-2.87,1.62-2.87,1.62-1.4.25-2.16-.38-2.16-.38l1.27-1.97s-.7-.38-.32-.76,3.05-.32,3.05-.32c.56,0,1.01.03,1.35.07.45.05.69.12.69.12Z"/><path class="cls-6" d="m55.26,33.07s-.25.51-1.34.51l-1.97,1.84h-1.46v-2.1l.7-.06,1.59-.13,1.21-.38,1.27.32Z"/><polygon class="cls-12" points="51.54 35.43 50.49 35.43 50.49 33.33 51.18 33.27 51.54 35.43"/><path class="cls-15" d="m50.8,33.01v3.05l-5.27-.21c-.78-.03-1.51-.37-2.03-.94l-2.39-3.27.6,11.2v.08c-5.91,2.23-11.44-.06-11.44-.06l.57-11.24v-.14s-1.58,1.78-1.58,1.78l-.02,1.41-.1,6.66h-3.05v-8.26c0-.51.11-1,.33-1.46l2.78-5.78c.53-1.1,1.5-1.93,2.68-2.27l2.64-.77c2.86,2.48,3.5-.06,3.5-.06l1.27.22c.95.16,1.79.73,2.29,1.55l5.12,8.31,4.13.19Z"/><polygon class="cls-12" points="63.3 43.58 62.19 43.32 62.19 42.74 63.27 43.06 63.3 43.58"/><polygon class="cls-8" points="63.49 43.34 61.2 42.84 62.28 31.64 62.79 25.98 64 24.65 63.49 43.34"/><polygon class="cls-5" points="68.35 43.44 67.72 52.85 67.97 69.86 63.59 69.86 62.57 52.53 62.95 38.23 69.5 37.53 68.35 43.44"/><path class="cls-12" d="m57.93,32.5l-.19,1.65-.76-.06s-.03.02-.05.04l.32-1.74c.45.05.69.12.69.12Z"/><polygon class="cls-1" points="73.47 37.83 73.98 51.04 76.27 69.86 72.27 69.86 68.2 52.76 65.75 38.86 73.47 37.83"/><path class="cls-10" d="m73.98,41.5c-4.96,3.18-11.57.13-11.57.13v-.07s.22-5.31.22-5.31l-5.4-.76.38-3.5,5.15.51v-6.06c0-.56.22-1.09.61-1.49l2-1.16c1.24,2.26,3.37-.83,3.37-.83l3.01.93c.81.36,1.34,1.15,1.39,2.03l.21,3.96.63,11.62Z"/><path class="cls-6" d="m53.92,36.06s.45.38.7-.19c0,0,.51.13.64-.38,0,0,.45.06.51-.38,0,0,.45.06.51-.38l-.25-1.08s-.51-.06-.57.45c0,0-.57-.19-.64.38,0,0-.51,0-.51.45,0,0-.51-.13-.57.45,0,0,0,.38.19.7Z"/><path class="cls-11" d="m26.2,43.67c-.22-.01-.41.15-.42.37h0v.23s-.12,1.61-.12,1.61l.39.02.08-1.29c.01-.18.16-.31.34-.3l3.68.23c.18.01.31.16.3.34l-.08,1.29.39.02.1-1.61v-.23h.01c.01-.22-.15-.41-.37-.42l-4.31-.27Z"/><rect class="cls-15" x="23.33" y="44.17" width="8.9" height="12.21" rx=".55" ry=".55" transform="translate(-24.14 74.83) rotate(-86.39)"/><polygon class="cls-11" points="32.72 49.25 27.01 50.9 21.76 48.64 21.79 48.16 27.04 50.42 32.6 48.82 32.72 49.25"/><path class="cls-6" d="m31.19,44.49c-.76.38-1.28-.3-1.28-.3-.04.56-.27.96-.27.96-.39.34-.78-.19-.78-.19-.47.23-.8-.39-.8-.39-.61.27-.7-.58-.7-.58,0-1.44,0-1.92,0-1.92v-.14s-.01-.58-.01-.58l1.71-.04.03.33h0s.41.65.41.65c.4.42,1.15,1.49,1.15,1.49l.54.72Z"/><rect class="cls-11" x="28.7" y="49.88" width="8.9" height="1.45" rx=".55" ry=".55" transform="translate(-19.45 80.51) rotate(-86.39)"/><rect class="cls-12" x="28.52" y="31.64" width="3.94" height=".19" transform="translate(-13.28 36.38) rotate(-52.21)"/><g class="cls-17"><path d="m41.71,42.93c-5.91,2.23-11.45-.06-11.45-.06l.57-11.24h0c-.03,13.75,9,11.56,10.87,11.22v.08Z"/></g><rect class="cls-12" x="40.9" y="29.12" width=".19" height="4.98" transform="translate(-2.86 4.1) rotate(-5.54)"/><polygon class="cls-12" points="29.09 41.65 27.36 41.93 27.35 41.34 29.06 41.3 29.09 41.63 29.09 41.65"/><path class="cls-12" d="m67.78,37.28c-.12,0-.24-.01-.37-.03l-6.77-1.15.03-.19,6.77,1.15c.82.14,1.66-.25,2.08-.96l1.83-3.1.16.1-1.83,3.1c-.4.68-1.14,1.09-1.91,1.09Z"/><g class="cls-17"><path d="m73.98,41.5c-4.96,3.18-11.57.13-11.57.13v-.07c11.57,3.06,10.45-7.73,10.94-11.68l.63,11.62Z"/></g><g class="cls-17"><polygon points="62.76 32.5 66.57 32.95 69.05 29.32 66.32 32.44 62.76 32.5"/></g><rect class="cls-2" x="67.19" y="43.85" width=".19" height="7.5" transform="translate(-7.24 12.4) rotate(-9.99)"/><rect class="cls-2" x="33.97" y="48.21" width="7.24" height=".19" transform="translate(-17.37 75.26) rotate(-78.24)"/></g><path class="cls-2" d="m65.49,20.74l-1.33.13s.34,1.04,1.33-.13Z"/><path class="cls-2" d="m38.82,20.07h-1.4s1.02,1.08,1.4,0Z"/></g><g id="Underline"><rect class="cls-12" x="5.43" y="73.45" width="95.45" height=".38"/></g></svg>