<svg xmlns="http://www.w3.org/2000/svg" width="42" height="42" viewBox="0 0 42 42">
  <g id="Group_2" data-name="Group 2" transform="translate(116 -390)">
    <rect id="Rectangle_15" data-name="Rectangle 15" width="42" height="42" transform="translate(-116 390)" fill="none"/>
    <path id="report" d="M16.635,15.308a.981.981,0,1,0,1.962,0Zm-5.231,0a.981.981,0,0,0,1.962,0Zm.981-3.6a.981.981,0,0,0,0,1.962Zm5.231,1.962a.981.981,0,0,0,0-1.962ZM9.769,18.25a.981.981,0,0,0,0,1.962Zm10.462,1.962a.981.981,0,0,0,0-1.962ZM9.769,22.173a.981.981,0,0,0,0,1.962ZM15,24.135a.981.981,0,0,0,0-1.962ZM8.462,3.212H21.538V1.25H8.462Zm17.327,4.25V23.154H27.75V7.462ZM21.538,27.4H8.462v1.962H21.538ZM4.212,23.154V7.462H2.25V23.154Zm4.25,4.25a4.25,4.25,0,0,1-4.25-4.25H2.25a6.212,6.212,0,0,0,6.212,6.212Zm17.327-4.25a4.25,4.25,0,0,1-4.25,4.25v1.962a6.211,6.211,0,0,0,6.212-6.212ZM21.538,3.212a4.25,4.25,0,0,1,4.25,4.25H27.75A6.212,6.212,0,0,0,21.538,1.25ZM8.462,1.25A6.212,6.212,0,0,0,2.25,7.462H4.212a4.25,4.25,0,0,1,4.25-4.25Zm8.173,8.827v5.231H18.6V10.077Zm-3.269,5.231V10.077H11.4v5.231ZM15,8.442a1.635,1.635,0,0,1,1.635,1.635H18.6a3.6,3.6,0,0,0-3.6-3.6Zm0-1.962a3.6,3.6,0,0,0-3.6,3.6h1.962A1.635,1.635,0,0,1,15,8.442Zm-2.615,7.192h5.231V11.712H12.385ZM9.769,20.212H20.231V18.25H9.769Zm0,3.923H15V22.173H9.769Z" transform="translate(-110 395.692)" fill="#adadad"/>
  </g>
</svg>
