<svg xmlns="http://www.w3.org/2000/svg" width="42" height="42" viewBox="0 0 42 42">
  <g id="Group_3" data-name="Group 3" transform="translate(116 -502)">
    <rect id="Rectangle_14" data-name="Rectangle 14" width="42" height="42" transform="translate(-116 502)" fill="none"/>
    <path id="calculator-1" d="M15.157,2.157a.907.907,0,1,0-1.814,0ZM13.343,26.343a.907.907,0,1,0,1.814,0Zm13-11.186a.907.907,0,1,0,0-1.814ZM2.157,13.343a.907.907,0,1,0,0,1.814ZM22.715,19.39a.907.907,0,0,0,0-1.814Zm-4.837-1.814a.907.907,0,1,0,0,1.814Zm4.837,5.442a.907.907,0,0,0,0-1.814ZM17.878,21.2a.907.907,0,1,0,0,1.814ZM6.994,3.064H21.506V1.25H6.994Zm18.442,3.93V21.506H27.25V6.994Zm-3.93,18.442H6.994V27.25H21.506ZM3.064,21.506V6.994H1.25V21.506Zm3.93,3.93a3.93,3.93,0,0,1-3.93-3.93H1.25A5.744,5.744,0,0,0,6.994,27.25Zm18.442-3.93a3.93,3.93,0,0,1-3.93,3.93V27.25a5.744,5.744,0,0,0,5.744-5.744ZM21.506,3.064a3.93,3.93,0,0,1,3.93,3.93H27.25A5.744,5.744,0,0,0,21.506,1.25ZM6.994,1.25A5.744,5.744,0,0,0,1.25,6.994H3.064a3.93,3.93,0,0,1,3.93-3.93Zm6.349.907V26.343h1.814V2.157Zm13,11.186H2.157v1.814H26.343Zm-3.628,4.233H17.878V19.39h4.837Zm0,3.628H17.878v1.814h4.837Z" transform="translate(-109.25 508.75)" fill="#adadad"/>
  </g>
</svg>
