<svg xmlns="http://www.w3.org/2000/svg" width="42" height="42" viewBox="0 0 42 42">
  <g id="Group_4" data-name="Group 4" transform="translate(192 -607)">
    <rect id="Rectangle_12" data-name="Rectangle 12" width="42" height="42" transform="translate(-192 607)" fill="none"/>
    <path id="basket_ball" data-name="basket ball" d="M20.532,14.25a11.146,11.146,0,0,1,3.107-7.737l-1.31-1.255a12.959,12.959,0,0,0-3.611,8.992ZM14.25,3.064a11.151,11.151,0,0,1,8.079,3.449l1.31-1.255A12.965,12.965,0,0,0,14.25,1.25Zm8.079,3.449a11.145,11.145,0,0,1,3.107,7.737H27.25a12.959,12.959,0,0,0-3.611-8.992Zm1.31,15.474a11.146,11.146,0,0,1-3.107-7.737H18.718a12.959,12.959,0,0,0,3.611,8.992Zm1.8-7.737a11.145,11.145,0,0,1-3.107,7.737l1.31,1.255A12.959,12.959,0,0,0,27.25,14.25Zm-3.107,7.737a11.151,11.151,0,0,1-8.079,3.449V27.25a12.965,12.965,0,0,0,9.389-4.008ZM4.861,6.513A11.145,11.145,0,0,1,7.968,14.25H9.782A12.959,12.959,0,0,0,6.171,5.258Zm-1.8,7.737A11.145,11.145,0,0,1,6.171,6.513L4.861,5.258A12.959,12.959,0,0,0,1.25,14.25ZM6.171,6.513A11.151,11.151,0,0,1,14.25,3.064V1.25A12.965,12.965,0,0,0,4.861,5.258Zm1.8,7.737a11.145,11.145,0,0,1-3.107,7.737l1.31,1.255A12.959,12.959,0,0,0,9.782,14.25ZM14.25,25.436a11.151,11.151,0,0,1-8.079-3.449l-1.31,1.255A12.965,12.965,0,0,0,14.25,27.25ZM6.171,21.987A11.145,11.145,0,0,1,3.064,14.25H1.25a12.959,12.959,0,0,0,3.611,8.992Zm7.172-19.83V26.343h1.814V2.157Zm13,11.186H2.157v1.814H26.343Z" transform="translate(-185.25 613.75)" fill="#adadad"/>
  </g>
</svg>
