<svg xmlns="http://www.w3.org/2000/svg" width="42" height="42" viewBox="0 0 42 42">
  <g id="Group_5" data-name="Group 5" transform="translate(295 -607)">
    <rect id="Rectangle_13" data-name="Rectangle 13" width="42" height="42" transform="translate(-295 607)" fill="none"/>
    <path id="test_tube" data-name="test tube" d="M11.9,2.219V1.25a.969.969,0,0,0-.969.969Zm5.166,0h.969a.969.969,0,0,0-.969-.969Zm-5.439,8.294-.866-.433Zm5.711,0,.866-.433ZM4.728,24.31l.866.433h0Zm19.508,0-.866.433ZM9.317,1.25a.969.969,0,0,0,0,1.937ZM19.648,3.187a.969.969,0,1,0,0-1.937ZM9.317,15.456a.969.969,0,1,0,0,1.937Zm10.332,1.937a.969.969,0,1,0,0-1.937ZM11.9,3.187h5.166V1.25H11.9ZM21.926,27.079H7.039v1.937H21.926ZM16.1,2.219V9.358h1.937V2.219Zm.375,8.727,6.9,13.8,1.733-.866-6.9-13.8ZM5.595,24.743l6.9-13.8L10.76,10.08l-6.9,13.8ZM12.868,9.358V2.219H10.931V9.358Zm-.375,1.588a3.552,3.552,0,0,0,.375-1.588H10.931a1.614,1.614,0,0,1-.17.722Zm3.6-1.588a3.552,3.552,0,0,0,.375,1.588L18.2,10.08a1.614,1.614,0,0,1-.17-.722ZM7.039,27.079a1.614,1.614,0,0,1-1.444-2.336l-1.733-.866a3.552,3.552,0,0,0,3.177,5.14Zm14.888,1.937a3.551,3.551,0,0,0,3.177-5.14l-1.733.866a1.614,1.614,0,0,1-1.444,2.336ZM9.317,3.187H19.648V1.25H9.317Zm0,14.206H19.648V15.456H9.317Z" transform="translate(-288.482 612.867)" fill="#adadad"/>
  </g>
</svg>
