<svg xmlns="http://www.w3.org/2000/svg" width="38" height="38" viewBox="0 0 38 38" fill="none">
<path d="M10.2917 31.6666H7.91667C6.16776 31.6666 4.75 30.2489 4.75 28.5V6.33329C4.75 4.58439 6.16777 3.16663 7.91667 3.16663H30.0833C31.8322 3.16663 33.25 4.58439 33.25 6.33329V28.5C33.25 30.2489 31.8322 31.6666 30.0833 31.6666H27.7083M19 30.0833C21.6234 30.0833 23.75 27.9566 23.75 25.3333C23.75 22.7099 21.6234 20.5833 19 20.5833C16.3766 20.5833 14.25 22.7099 14.25 25.3333C14.25 27.9566 16.3766 30.0833 19 30.0833ZM19 30.0833L19.0339 30.083L13.9787 35.1382L9.50039 30.6598L14.2811 25.8791M19 30.0833L24.0553 35.1382L28.5336 30.6598L23.7529 25.8791M14.25 9.49996H23.75M11.0833 15.0416H26.9167" stroke="white" stroke-width="2" stroke-linecap="round" stroke-linejoin="round"/>
</svg>