<svg xmlns="http://www.w3.org/2000/svg" width="40" height="40" viewBox="0 0 40 40" fill="none">
<path d="M29.5 24.9755V18.3892C29.5 17.9959 29.5 17.7993 29.4481 17.6257C29.4022 17.4721 29.3272 17.3323 29.2287 17.2163C29.1173 17.0851 28.9648 16.9971 28.6598 16.8212L20 11.8274M4.8 14.0187V28.9344C4.8 29.7494 4.8 30.1569 4.91023 30.5136C5.00769 30.8291 5.16651 31.1145 5.37452 31.3481C5.60981 31.6123 5.93102 31.7821 6.57337 32.1217L18.7334 38.5496C19.1993 38.796 19.4323 38.9191 19.675 38.9677C19.8901 39.0108 20.1099 39.0108 20.325 38.9677C20.5677 38.9191 20.8007 38.796 21.2666 38.5496L33.4266 32.1217C34.069 31.7821 34.3902 31.6123 34.6255 31.3481C34.8335 31.1145 34.9923 30.8291 35.0898 30.5136C35.2 30.1569 35.2 29.7494 35.2 28.9344V14.0187M1 11.8274L19.3202 1.26267C19.5695 1.11894 19.6941 1.04707 19.8248 1.01879C19.9406 0.993737 20.0594 0.993737 20.1752 1.01879C20.3059 1.04707 20.4305 1.11894 20.6798 1.26267L39 11.8274L20.6798 22.3921C20.4305 22.5359 20.3059 22.6077 20.1752 22.636C20.0594 22.6611 19.9406 22.6611 19.8248 22.636C19.6941 22.6077 19.5695 22.5359 19.3202 22.3921L1 11.8274Z" stroke="white" stroke-width="2" stroke-linecap="round" stroke-linejoin="round"/>
</svg>