<svg xmlns="http://www.w3.org/2000/svg" width="108.49" height="121.265" viewBox="0 0 108.49 121.265">
  <g id="Group_26" data-name="Group 26" transform="translate(196.148 -5703.343) rotate(30)" opacity="0.15">
    <path id="Path_107" data-name="Path 107" d="M36.819,4.451c2.585,2.131,5.141,4.275,7.7,6.434a34.341,34.341,0,0,0,4.809,3.869c.491.294,1.242.322,1.473.911v-.014a9.465,9.465,0,0,1,1.545.967,58.536,58.536,0,0,1,4.967,4.556c.058.07.245.042.332.126.433.406,1.892,1.934,2.931,2.817A26.59,26.59,0,0,1,66.9,31.112c.245.449,4.707,5.733,2.455,8.032-2.339,2.4-7.942-1.29-8.491-1.948-1.314-1.612-2.325-3.56-4.245-4.514-2.816-1.4-4.722-3.757-7.061-5.635-2.108-1.7-3.985-3.63-6.108-5.313-1.993-1.57-4.375-2.747-6.238-4.471-1.6-1.486-2.643-3.546-4.058-5.228-.332-.393-1.2-.378-1.588-.8a4.247,4.247,0,0,1-1.025-1.4c-.058-.224-.116-.477-.332-.519-1.04-.21-5.848-5.677-3.1-8.452C29.757-1.871,34.58,2.6,36.819,4.451Z" transform="translate(2716.703 5002)"/>
    <path id="Path_108" data-name="Path 108" d="M34.872,86.553q3.747.967,7.48,2a21.546,21.546,0,0,0,4.621,1.121c.448.028,1.011-.294,1.343.1a5.841,5.841,0,0,1,1.415.126,34.974,34.974,0,0,1,4.938,1.64c.058.028.188-.084.274-.042.433.154,1.935.8,2.946,1.079a16.176,16.176,0,0,1,6.6,3.112c.3.266,5.054,2.775,4.014,5.775-1.083,3.126-6.267,2.523-6.859,2.215-1.415-.771-2.7-1.99-4.39-1.934-2.484.084-4.534-1.065-6.8-1.612-2.036-.491-3.957-1.3-5.993-1.766-1.921-.434-4-.364-5.848-.995-1.588-.547-2.931-1.837-4.433-2.635-.361-.182-1,.224-1.4.042a2.768,2.768,0,0,1-1.141-.729c-.1-.154-.217-.35-.39-.294-.837.294-5.906-2.2-4.606-5.831C27.9,84.352,32.706,85.992,34.872,86.553Z" transform="translate(2716.64 4969.321)"/>
    <path id="Path_109" data-name="Path 109" d="M10.119,164.9c3.581-.771,7.162-1.5,10.758-2.228a42.486,42.486,0,0,0,6.585-1.486c.578-.225,1.112-.785,1.776-.617h-.014a11.675,11.675,0,0,1,1.863-.645,71.173,71.173,0,0,1,7.292-1.206c.087,0,.188-.168.332-.2.65-.1,2.96-.337,4.419-.631a32.687,32.687,0,0,1,10.339-.827c.563.071,8.159-.294,8.693,2.831.563,3.252-6.382,5.481-7.335,5.509-2.281.084-4.664-.28-6.787.659-3.1,1.374-6.426,1.486-9.646,2.2-2.888.645-5.834.982-8.722,1.654-2.7.631-5.314,1.808-8.057,2.243-2.368.378-4.881-.028-7.292.083-.563.028-1.141.715-1.747.771a5.13,5.13,0,0,1-1.906-.028c-.231-.084-.491-.2-.679-.042-.881.7-8.866,1.234-9.5-2.565C-.1,166.709,7.015,165.573,10.119,164.9Z" transform="translate(2726.547 4942.154)"/>
  </g>
</svg>
